G04*
G04 #@! TF.GenerationSoftware,Altium Limited,Altium Designer,21.9.2 (33)*
G04*
G04 Layer_Color=16711935*
%FSLAX43Y43*%
%MOMM*%
G71*
G04*
G04 #@! TF.SameCoordinates,8A64DE41-CE10-4B2C-A13A-6A112CDDCE5D*
G04*
G04*
G04 #@! TF.FilePolarity,Positive*
G04*
G01*
G75*
%ADD11C,0.200*%
G36*
X25317Y31661D02*
X25325Y31660D01*
X25336Y31659D01*
X25346Y31658D01*
X25358Y31656D01*
X25383Y31650D01*
X25410Y31642D01*
X25424Y31636D01*
X25437Y31630D01*
X25450Y31621D01*
X25463Y31613D01*
X25464Y31612D01*
X25466Y31611D01*
X25470Y31608D01*
X25474Y31604D01*
X25479Y31599D01*
X25485Y31593D01*
X25492Y31585D01*
X25499Y31578D01*
X25507Y31569D01*
X25514Y31558D01*
X25522Y31546D01*
X25530Y31534D01*
X25536Y31521D01*
X25544Y31507D01*
X25549Y31492D01*
X25555Y31475D01*
X25472Y31456D01*
Y31457D01*
X25471Y31459D01*
X25469Y31462D01*
X25467Y31467D01*
X25465Y31472D01*
X25462Y31480D01*
X25455Y31495D01*
X25446Y31511D01*
X25435Y31528D01*
X25421Y31544D01*
X25406Y31558D01*
X25404Y31559D01*
X25398Y31563D01*
X25389Y31568D01*
X25377Y31574D01*
X25361Y31580D01*
X25344Y31585D01*
X25323Y31589D01*
X25300Y31590D01*
X25292D01*
X25288Y31589D01*
X25281D01*
X25274Y31588D01*
X25256Y31585D01*
X25237Y31582D01*
X25216Y31575D01*
X25195Y31566D01*
X25176Y31554D01*
X25175D01*
X25174Y31552D01*
X25167Y31547D01*
X25159Y31540D01*
X25149Y31529D01*
X25137Y31515D01*
X25126Y31499D01*
X25116Y31480D01*
X25106Y31459D01*
Y31458D01*
X25105Y31456D01*
X25104Y31453D01*
X25104Y31448D01*
X25102Y31443D01*
X25100Y31436D01*
X25097Y31421D01*
X25093Y31402D01*
X25090Y31382D01*
X25088Y31360D01*
X25087Y31336D01*
Y31335D01*
Y31332D01*
Y31327D01*
Y31322D01*
X25088Y31315D01*
Y31307D01*
X25089Y31298D01*
X25090Y31288D01*
X25092Y31265D01*
X25097Y31241D01*
X25103Y31217D01*
X25110Y31193D01*
Y31192D01*
X25111Y31190D01*
X25113Y31188D01*
X25115Y31183D01*
X25120Y31172D01*
X25128Y31159D01*
X25139Y31144D01*
X25152Y31128D01*
X25166Y31115D01*
X25184Y31102D01*
X25185D01*
X25187Y31101D01*
X25190Y31099D01*
X25193Y31097D01*
X25198Y31095D01*
X25203Y31092D01*
X25216Y31087D01*
X25233Y31081D01*
X25251Y31077D01*
X25272Y31073D01*
X25293Y31072D01*
X25300D01*
X25305Y31073D01*
X25312D01*
X25318Y31074D01*
X25335Y31078D01*
X25354Y31082D01*
X25374Y31090D01*
X25394Y31100D01*
X25404Y31105D01*
X25413Y31113D01*
X25414Y31114D01*
X25415Y31115D01*
X25418Y31117D01*
X25422Y31120D01*
X25425Y31125D01*
X25430Y31130D01*
X25435Y31136D01*
X25440Y31143D01*
X25446Y31152D01*
X25452Y31161D01*
X25458Y31170D01*
X25463Y31181D01*
X25468Y31193D01*
X25472Y31206D01*
X25477Y31220D01*
X25481Y31235D01*
X25566Y31214D01*
Y31213D01*
X25565Y31209D01*
X25563Y31203D01*
X25560Y31196D01*
X25558Y31188D01*
X25554Y31177D01*
X25549Y31166D01*
X25544Y31154D01*
X25531Y31128D01*
X25514Y31103D01*
X25504Y31090D01*
X25494Y31077D01*
X25483Y31066D01*
X25470Y31055D01*
X25469Y31054D01*
X25467Y31052D01*
X25462Y31050D01*
X25458Y31046D01*
X25450Y31042D01*
X25443Y31037D01*
X25433Y31032D01*
X25423Y31028D01*
X25410Y31022D01*
X25398Y31018D01*
X25384Y31013D01*
X25369Y31008D01*
X25353Y31005D01*
X25337Y31003D01*
X25319Y31001D01*
X25300Y31000D01*
X25290D01*
X25283Y31001D01*
X25275D01*
X25264Y31002D01*
X25253Y31004D01*
X25240Y31006D01*
X25214Y31010D01*
X25186Y31018D01*
X25158Y31028D01*
X25145Y31034D01*
X25132Y31042D01*
X25131Y31043D01*
X25129Y31043D01*
X25126Y31046D01*
X25122Y31050D01*
X25116Y31054D01*
X25110Y31059D01*
X25103Y31066D01*
X25095Y31073D01*
X25088Y31081D01*
X25080Y31090D01*
X25063Y31111D01*
X25047Y31136D01*
X25033Y31164D01*
Y31165D01*
X25031Y31167D01*
X25031Y31172D01*
X25028Y31177D01*
X25026Y31185D01*
X25023Y31194D01*
X25019Y31204D01*
X25017Y31215D01*
X25014Y31227D01*
X25010Y31241D01*
X25006Y31270D01*
X25002Y31302D01*
X25000Y31336D01*
Y31337D01*
Y31340D01*
Y31346D01*
X25001Y31352D01*
Y31361D01*
X25002Y31371D01*
X25003Y31383D01*
X25005Y31395D01*
X25009Y31422D01*
X25016Y31451D01*
X25025Y31481D01*
X25038Y31509D01*
X25039Y31510D01*
X25040Y31513D01*
X25042Y31517D01*
X25045Y31521D01*
X25049Y31528D01*
X25054Y31535D01*
X25066Y31552D01*
X25081Y31570D01*
X25100Y31589D01*
X25121Y31607D01*
X25146Y31623D01*
X25147Y31624D01*
X25150Y31625D01*
X25153Y31627D01*
X25158Y31630D01*
X25165Y31632D01*
X25173Y31635D01*
X25182Y31639D01*
X25192Y31643D01*
X25203Y31646D01*
X25215Y31650D01*
X25241Y31656D01*
X25271Y31660D01*
X25301Y31662D01*
X25311D01*
X25317Y31661D01*
D02*
G37*
G36*
X25865Y31653D02*
X25873Y31652D01*
X25882Y31651D01*
X25892Y31649D01*
X25902Y31647D01*
X25926Y31641D01*
X25950Y31631D01*
X25962Y31626D01*
X25974Y31619D01*
X25986Y31611D01*
X25996Y31602D01*
X25997Y31601D01*
X25999Y31600D01*
X26000Y31596D01*
X26004Y31593D01*
X26009Y31588D01*
X26013Y31582D01*
X26018Y31575D01*
X26023Y31567D01*
X26033Y31549D01*
X26042Y31527D01*
X26046Y31516D01*
X26048Y31503D01*
X26049Y31490D01*
X26050Y31476D01*
Y31474D01*
Y31470D01*
X26049Y31462D01*
X26048Y31452D01*
X26047Y31441D01*
X26043Y31428D01*
X26039Y31414D01*
X26034Y31400D01*
X26033Y31398D01*
X26031Y31394D01*
X26027Y31386D01*
X26022Y31376D01*
X26014Y31365D01*
X26005Y31351D01*
X25994Y31337D01*
X25981Y31322D01*
X25979Y31320D01*
X25974Y31314D01*
X25970Y31310D01*
X25965Y31305D01*
X25960Y31300D01*
X25952Y31292D01*
X25945Y31285D01*
X25936Y31276D01*
X25926Y31267D01*
X25915Y31257D01*
X25903Y31247D01*
X25890Y31235D01*
X25876Y31223D01*
X25861Y31210D01*
X25860Y31209D01*
X25858Y31207D01*
X25854Y31204D01*
X25850Y31201D01*
X25844Y31195D01*
X25838Y31190D01*
X25823Y31177D01*
X25807Y31164D01*
X25792Y31150D01*
X25779Y31138D01*
X25774Y31133D01*
X25769Y31128D01*
X25768Y31128D01*
X25766Y31125D01*
X25762Y31121D01*
X25757Y31116D01*
X25753Y31109D01*
X25747Y31103D01*
X25736Y31087D01*
X26051D01*
Y31011D01*
X25627D01*
Y31012D01*
Y31016D01*
Y31021D01*
X25628Y31029D01*
X25629Y31037D01*
X25631Y31046D01*
X25632Y31055D01*
X25636Y31066D01*
Y31067D01*
X25637Y31067D01*
X25639Y31073D01*
X25643Y31081D01*
X25648Y31092D01*
X25656Y31105D01*
X25665Y31120D01*
X25675Y31135D01*
X25688Y31151D01*
Y31152D01*
X25690Y31153D01*
X25694Y31158D01*
X25703Y31166D01*
X25715Y31178D01*
X25729Y31192D01*
X25746Y31209D01*
X25767Y31227D01*
X25790Y31247D01*
X25791Y31248D01*
X25795Y31251D01*
X25801Y31255D01*
X25807Y31261D01*
X25815Y31268D01*
X25826Y31276D01*
X25836Y31286D01*
X25848Y31296D01*
X25871Y31318D01*
X25894Y31340D01*
X25905Y31351D01*
X25915Y31362D01*
X25925Y31373D01*
X25932Y31383D01*
Y31384D01*
X25934Y31385D01*
X25936Y31387D01*
X25937Y31391D01*
X25944Y31401D01*
X25951Y31413D01*
X25958Y31428D01*
X25964Y31444D01*
X25968Y31461D01*
X25970Y31478D01*
Y31479D01*
Y31480D01*
X25969Y31485D01*
X25968Y31495D01*
X25965Y31505D01*
X25962Y31518D01*
X25955Y31531D01*
X25947Y31544D01*
X25936Y31557D01*
X25934Y31558D01*
X25929Y31562D01*
X25923Y31567D01*
X25913Y31573D01*
X25900Y31579D01*
X25885Y31584D01*
X25867Y31588D01*
X25848Y31589D01*
X25842D01*
X25839Y31588D01*
X25827Y31587D01*
X25815Y31584D01*
X25801Y31581D01*
X25785Y31574D01*
X25770Y31566D01*
X25756Y31555D01*
X25754Y31553D01*
X25751Y31548D01*
X25745Y31541D01*
X25740Y31530D01*
X25733Y31517D01*
X25728Y31500D01*
X25724Y31482D01*
X25722Y31460D01*
X25642Y31469D01*
Y31470D01*
X25643Y31472D01*
Y31477D01*
X25643Y31484D01*
X25645Y31491D01*
X25647Y31499D01*
X25650Y31509D01*
X25653Y31520D01*
X25660Y31542D01*
X25671Y31564D01*
X25678Y31575D01*
X25686Y31586D01*
X25694Y31596D01*
X25704Y31606D01*
X25705Y31607D01*
X25706Y31607D01*
X25709Y31610D01*
X25714Y31613D01*
X25719Y31617D01*
X25726Y31620D01*
X25733Y31625D01*
X25742Y31630D01*
X25753Y31634D01*
X25764Y31639D01*
X25776Y31643D01*
X25789Y31646D01*
X25803Y31649D01*
X25817Y31652D01*
X25833Y31653D01*
X25850Y31654D01*
X25859D01*
X25865Y31653D01*
D02*
G37*
G36*
X31493Y31661D02*
X31502Y31660D01*
X31512Y31659D01*
X31522Y31658D01*
X31534Y31656D01*
X31559Y31650D01*
X31587Y31642D01*
X31601Y31636D01*
X31613Y31630D01*
X31626Y31621D01*
X31639Y31613D01*
X31640Y31612D01*
X31642Y31611D01*
X31646Y31608D01*
X31650Y31604D01*
X31655Y31599D01*
X31662Y31593D01*
X31668Y31585D01*
X31675Y31578D01*
X31683Y31569D01*
X31690Y31558D01*
X31698Y31546D01*
X31706Y31534D01*
X31712Y31521D01*
X31720Y31507D01*
X31725Y31492D01*
X31731Y31475D01*
X31648Y31456D01*
Y31457D01*
X31647Y31459D01*
X31645Y31462D01*
X31643Y31467D01*
X31641Y31472D01*
X31638Y31480D01*
X31631Y31495D01*
X31622Y31511D01*
X31611Y31528D01*
X31597Y31544D01*
X31582Y31558D01*
X31580Y31559D01*
X31575Y31563D01*
X31565Y31568D01*
X31553Y31574D01*
X31538Y31580D01*
X31520Y31585D01*
X31499Y31589D01*
X31476Y31590D01*
X31468D01*
X31464Y31589D01*
X31457D01*
X31450Y31588D01*
X31432Y31585D01*
X31413Y31582D01*
X31392Y31575D01*
X31371Y31566D01*
X31352Y31554D01*
X31351D01*
X31350Y31552D01*
X31343Y31547D01*
X31335Y31540D01*
X31325Y31529D01*
X31313Y31515D01*
X31302Y31499D01*
X31292Y31480D01*
X31282Y31459D01*
Y31458D01*
X31282Y31456D01*
X31281Y31453D01*
X31280Y31448D01*
X31278Y31443D01*
X31276Y31436D01*
X31273Y31421D01*
X31270Y31402D01*
X31266Y31382D01*
X31264Y31360D01*
X31263Y31336D01*
Y31335D01*
Y31332D01*
Y31327D01*
Y31322D01*
X31264Y31315D01*
Y31307D01*
X31265Y31298D01*
X31266Y31288D01*
X31269Y31265D01*
X31273Y31241D01*
X31279Y31217D01*
X31286Y31193D01*
Y31192D01*
X31287Y31190D01*
X31289Y31188D01*
X31291Y31183D01*
X31296Y31172D01*
X31305Y31159D01*
X31315Y31144D01*
X31328Y31129D01*
X31343Y31115D01*
X31360Y31102D01*
X31361D01*
X31363Y31101D01*
X31366Y31099D01*
X31369Y31097D01*
X31374Y31095D01*
X31380Y31092D01*
X31392Y31087D01*
X31409Y31081D01*
X31428Y31077D01*
X31448Y31073D01*
X31469Y31072D01*
X31476D01*
X31481Y31073D01*
X31488D01*
X31494Y31074D01*
X31511Y31078D01*
X31530Y31082D01*
X31550Y31090D01*
X31570Y31100D01*
X31580Y31105D01*
X31589Y31113D01*
X31590Y31114D01*
X31591Y31115D01*
X31594Y31117D01*
X31598Y31120D01*
X31601Y31125D01*
X31606Y31130D01*
X31612Y31136D01*
X31616Y31143D01*
X31622Y31152D01*
X31628Y31161D01*
X31634Y31170D01*
X31639Y31181D01*
X31644Y31193D01*
X31649Y31206D01*
X31653Y31220D01*
X31657Y31235D01*
X31742Y31214D01*
Y31213D01*
X31741Y31209D01*
X31739Y31203D01*
X31736Y31196D01*
X31734Y31188D01*
X31730Y31178D01*
X31725Y31166D01*
X31720Y31154D01*
X31707Y31129D01*
X31690Y31103D01*
X31680Y31090D01*
X31670Y31077D01*
X31659Y31066D01*
X31646Y31055D01*
X31645Y31054D01*
X31643Y31052D01*
X31638Y31050D01*
X31634Y31046D01*
X31626Y31042D01*
X31619Y31037D01*
X31609Y31032D01*
X31599Y31028D01*
X31587Y31022D01*
X31574Y31018D01*
X31560Y31013D01*
X31545Y31008D01*
X31529Y31005D01*
X31513Y31003D01*
X31495Y31001D01*
X31477Y31000D01*
X31466D01*
X31459Y31001D01*
X31451D01*
X31441Y31002D01*
X31429Y31004D01*
X31417Y31006D01*
X31390Y31010D01*
X31362Y31018D01*
X31334Y31028D01*
X31321Y31034D01*
X31308Y31042D01*
X31307Y31043D01*
X31306Y31043D01*
X31302Y31046D01*
X31298Y31050D01*
X31293Y31054D01*
X31286Y31059D01*
X31279Y31066D01*
X31271Y31073D01*
X31264Y31081D01*
X31256Y31090D01*
X31239Y31111D01*
X31223Y31136D01*
X31209Y31164D01*
Y31165D01*
X31208Y31167D01*
X31207Y31172D01*
X31204Y31178D01*
X31202Y31185D01*
X31199Y31194D01*
X31196Y31204D01*
X31193Y31215D01*
X31190Y31227D01*
X31186Y31241D01*
X31182Y31270D01*
X31178Y31302D01*
X31176Y31336D01*
Y31337D01*
Y31340D01*
Y31346D01*
X31177Y31352D01*
Y31361D01*
X31178Y31371D01*
X31179Y31383D01*
X31181Y31395D01*
X31185Y31422D01*
X31192Y31451D01*
X31201Y31481D01*
X31214Y31509D01*
X31215Y31510D01*
X31216Y31513D01*
X31218Y31517D01*
X31221Y31521D01*
X31225Y31528D01*
X31230Y31535D01*
X31242Y31552D01*
X31257Y31570D01*
X31276Y31589D01*
X31297Y31607D01*
X31322Y31623D01*
X31323Y31624D01*
X31326Y31625D01*
X31330Y31627D01*
X31334Y31630D01*
X31342Y31632D01*
X31349Y31635D01*
X31358Y31639D01*
X31368Y31643D01*
X31380Y31646D01*
X31392Y31650D01*
X31417Y31656D01*
X31447Y31660D01*
X31478Y31662D01*
X31487D01*
X31493Y31661D01*
D02*
G37*
G36*
X32034Y31653D02*
X32046Y31651D01*
X32061Y31648D01*
X32078Y31643D01*
X32094Y31638D01*
X32111Y31631D01*
X32112D01*
X32113Y31630D01*
X32118Y31627D01*
X32127Y31621D01*
X32136Y31615D01*
X32147Y31606D01*
X32158Y31595D01*
X32169Y31583D01*
X32178Y31570D01*
X32179Y31568D01*
X32182Y31563D01*
X32186Y31555D01*
X32190Y31545D01*
X32195Y31533D01*
X32199Y31519D01*
X32201Y31503D01*
X32202Y31487D01*
Y31485D01*
Y31480D01*
X32201Y31472D01*
X32200Y31462D01*
X32197Y31450D01*
X32192Y31437D01*
X32187Y31424D01*
X32179Y31411D01*
X32178Y31410D01*
X32176Y31406D01*
X32170Y31399D01*
X32163Y31392D01*
X32153Y31384D01*
X32142Y31374D01*
X32129Y31366D01*
X32114Y31358D01*
X32115D01*
X32116Y31357D01*
X32119Y31356D01*
X32123Y31355D01*
X32133Y31351D01*
X32146Y31346D01*
X32161Y31338D01*
X32176Y31329D01*
X32189Y31317D01*
X32202Y31303D01*
X32203Y31301D01*
X32207Y31296D01*
X32213Y31287D01*
X32218Y31275D01*
X32224Y31260D01*
X32229Y31242D01*
X32233Y31222D01*
X32234Y31200D01*
Y31199D01*
Y31196D01*
Y31191D01*
X32233Y31186D01*
X32232Y31178D01*
X32230Y31170D01*
X32228Y31161D01*
X32226Y31151D01*
X32219Y31129D01*
X32213Y31116D01*
X32208Y31105D01*
X32201Y31093D01*
X32192Y31081D01*
X32183Y31069D01*
X32172Y31058D01*
X32171Y31057D01*
X32169Y31055D01*
X32165Y31053D01*
X32161Y31049D01*
X32155Y31044D01*
X32148Y31040D01*
X32140Y31034D01*
X32129Y31030D01*
X32119Y31024D01*
X32107Y31018D01*
X32095Y31014D01*
X32081Y31009D01*
X32066Y31006D01*
X32051Y31003D01*
X32035Y31001D01*
X32017Y31000D01*
X32009D01*
X32004Y31001D01*
X31996Y31002D01*
X31988Y31003D01*
X31979Y31005D01*
X31968Y31006D01*
X31946Y31012D01*
X31923Y31021D01*
X31911Y31027D01*
X31900Y31033D01*
X31889Y31042D01*
X31878Y31050D01*
X31877Y31051D01*
X31875Y31053D01*
X31872Y31055D01*
X31870Y31059D01*
X31865Y31064D01*
X31860Y31070D01*
X31855Y31077D01*
X31849Y31085D01*
X31844Y31094D01*
X31838Y31104D01*
X31828Y31126D01*
X31820Y31152D01*
X31817Y31165D01*
X31815Y31180D01*
X31894Y31190D01*
Y31190D01*
X31895Y31188D01*
X31895Y31184D01*
X31896Y31179D01*
X31897Y31174D01*
X31899Y31167D01*
X31904Y31153D01*
X31910Y31137D01*
X31919Y31121D01*
X31928Y31106D01*
X31939Y31093D01*
X31941Y31092D01*
X31944Y31089D01*
X31952Y31084D01*
X31961Y31080D01*
X31972Y31074D01*
X31986Y31069D01*
X32002Y31066D01*
X32018Y31065D01*
X32024D01*
X32028Y31066D01*
X32038Y31067D01*
X32051Y31069D01*
X32066Y31074D01*
X32081Y31080D01*
X32097Y31090D01*
X32112Y31103D01*
X32114Y31104D01*
X32118Y31110D01*
X32124Y31118D01*
X32131Y31129D01*
X32139Y31143D01*
X32144Y31159D01*
X32149Y31178D01*
X32151Y31198D01*
Y31199D01*
Y31201D01*
Y31203D01*
X32150Y31207D01*
X32149Y31217D01*
X32146Y31229D01*
X32142Y31244D01*
X32136Y31259D01*
X32127Y31274D01*
X32115Y31288D01*
X32113Y31289D01*
X32108Y31293D01*
X32101Y31299D01*
X32091Y31305D01*
X32078Y31312D01*
X32062Y31317D01*
X32044Y31321D01*
X32025Y31323D01*
X32017D01*
X32010Y31322D01*
X32002Y31321D01*
X31993Y31319D01*
X31981Y31317D01*
X31969Y31314D01*
X31979Y31384D01*
X31983D01*
X31987Y31383D01*
X31999D01*
X32009Y31385D01*
X32021Y31386D01*
X32035Y31389D01*
X32051Y31394D01*
X32066Y31400D01*
X32081Y31409D01*
X32082D01*
X32083Y31410D01*
X32088Y31413D01*
X32094Y31420D01*
X32102Y31428D01*
X32109Y31440D01*
X32115Y31454D01*
X32120Y31470D01*
X32122Y31479D01*
Y31489D01*
Y31490D01*
Y31491D01*
Y31496D01*
X32120Y31504D01*
X32118Y31514D01*
X32115Y31525D01*
X32110Y31537D01*
X32103Y31549D01*
X32092Y31560D01*
X32091Y31561D01*
X32087Y31565D01*
X32080Y31570D01*
X32072Y31575D01*
X32061Y31580D01*
X32048Y31584D01*
X32033Y31588D01*
X32017Y31589D01*
X32009D01*
X32001Y31587D01*
X31990Y31585D01*
X31978Y31582D01*
X31966Y31577D01*
X31953Y31570D01*
X31941Y31560D01*
X31940Y31559D01*
X31936Y31555D01*
X31931Y31548D01*
X31924Y31539D01*
X31918Y31527D01*
X31911Y31512D01*
X31906Y31495D01*
X31902Y31474D01*
X31823Y31488D01*
Y31489D01*
X31824Y31492D01*
X31825Y31496D01*
X31826Y31501D01*
X31828Y31508D01*
X31831Y31515D01*
X31836Y31533D01*
X31846Y31553D01*
X31857Y31573D01*
X31870Y31593D01*
X31888Y31610D01*
X31889Y31611D01*
X31891Y31612D01*
X31894Y31614D01*
X31897Y31617D01*
X31902Y31620D01*
X31908Y31624D01*
X31915Y31628D01*
X31923Y31632D01*
X31942Y31640D01*
X31963Y31647D01*
X31988Y31652D01*
X32001Y31654D01*
X32024D01*
X32034Y31653D01*
D02*
G37*
G36*
X64995Y55999D02*
X65003Y55998D01*
X65011Y55997D01*
X65021Y55996D01*
X65032Y55994D01*
X65055Y55988D01*
X65078Y55980D01*
X65090Y55974D01*
X65102Y55968D01*
X65113Y55960D01*
X65124Y55952D01*
X65125Y55951D01*
X65127Y55950D01*
X65129Y55946D01*
X65132Y55943D01*
X65137Y55938D01*
X65142Y55933D01*
X65147Y55925D01*
X65152Y55917D01*
X65157Y55908D01*
X65163Y55898D01*
X65173Y55876D01*
X65181Y55850D01*
X65184Y55836D01*
X65186Y55822D01*
X65104Y55815D01*
Y55816D01*
Y55818D01*
X65103Y55821D01*
X65102Y55825D01*
X65099Y55835D01*
X65095Y55849D01*
X65090Y55863D01*
X65082Y55879D01*
X65073Y55893D01*
X65062Y55906D01*
X65060Y55907D01*
X65056Y55910D01*
X65049Y55915D01*
X65039Y55921D01*
X65028Y55926D01*
X65014Y55931D01*
X64998Y55934D01*
X64981Y55935D01*
X64975D01*
X64971Y55934D01*
X64960Y55933D01*
X64947Y55930D01*
X64932Y55925D01*
X64916Y55918D01*
X64899Y55907D01*
X64892Y55900D01*
X64885Y55893D01*
X64884Y55892D01*
X64883Y55891D01*
X64881Y55888D01*
X64878Y55885D01*
X64872Y55875D01*
X64864Y55862D01*
X64858Y55847D01*
X64851Y55827D01*
X64847Y55804D01*
X64845Y55792D01*
Y55779D01*
Y55778D01*
Y55776D01*
Y55773D01*
X64846Y55768D01*
Y55762D01*
X64847Y55756D01*
X64849Y55741D01*
X64854Y55724D01*
X64860Y55706D01*
X64870Y55689D01*
X64883Y55674D01*
Y55673D01*
X64885Y55672D01*
X64889Y55667D01*
X64897Y55661D01*
X64909Y55653D01*
X64923Y55647D01*
X64940Y55640D01*
X64959Y55636D01*
X64970Y55634D01*
X64988D01*
X64995Y55635D01*
X65005Y55636D01*
X65016Y55639D01*
X65027Y55641D01*
X65039Y55646D01*
X65051Y55651D01*
X65052Y55652D01*
X65056Y55654D01*
X65061Y55659D01*
X65068Y55663D01*
X65076Y55670D01*
X65083Y55678D01*
X65092Y55687D01*
X65098Y55697D01*
X65172Y55687D01*
X65110Y55357D01*
X64792D01*
Y55432D01*
X65048D01*
X65082Y55605D01*
X65081Y55604D01*
X65080Y55603D01*
X65077Y55602D01*
X65072Y55599D01*
X65067Y55596D01*
X65060Y55592D01*
X65045Y55585D01*
X65027Y55577D01*
X65007Y55571D01*
X64984Y55566D01*
X64973Y55565D01*
X64953D01*
X64947Y55565D01*
X64940Y55566D01*
X64932Y55567D01*
X64922Y55569D01*
X64912Y55572D01*
X64890Y55578D01*
X64878Y55583D01*
X64866Y55590D01*
X64854Y55596D01*
X64842Y55603D01*
X64831Y55613D01*
X64820Y55623D01*
X64819Y55624D01*
X64817Y55626D01*
X64814Y55628D01*
X64811Y55633D01*
X64806Y55639D01*
X64801Y55646D01*
X64796Y55654D01*
X64790Y55663D01*
X64786Y55674D01*
X64780Y55685D01*
X64775Y55698D01*
X64771Y55711D01*
X64767Y55724D01*
X64764Y55740D01*
X64762Y55756D01*
X64762Y55773D01*
Y55773D01*
Y55776D01*
Y55781D01*
X64762Y55787D01*
X64763Y55795D01*
X64764Y55803D01*
X64766Y55813D01*
X64768Y55823D01*
X64774Y55847D01*
X64783Y55872D01*
X64788Y55885D01*
X64796Y55897D01*
X64803Y55910D01*
X64812Y55922D01*
X64813Y55923D01*
X64815Y55926D01*
X64819Y55930D01*
X64823Y55934D01*
X64830Y55940D01*
X64837Y55947D01*
X64847Y55954D01*
X64857Y55961D01*
X64868Y55969D01*
X64881Y55975D01*
X64895Y55982D01*
X64909Y55988D01*
X64925Y55993D01*
X64943Y55996D01*
X64961Y55999D01*
X64981Y56000D01*
X64989D01*
X64995Y55999D01*
D02*
G37*
G36*
X65541D02*
X65549D01*
X65559Y55998D01*
X65571Y55996D01*
X65583Y55994D01*
X65610Y55990D01*
X65638Y55982D01*
X65666Y55972D01*
X65679Y55966D01*
X65692Y55958D01*
X65693Y55957D01*
X65694Y55957D01*
X65698Y55954D01*
X65702Y55950D01*
X65707Y55946D01*
X65714Y55941D01*
X65721Y55934D01*
X65729Y55927D01*
X65736Y55919D01*
X65744Y55910D01*
X65761Y55889D01*
X65777Y55864D01*
X65791Y55836D01*
Y55835D01*
X65792Y55833D01*
X65793Y55828D01*
X65796Y55822D01*
X65798Y55815D01*
X65801Y55806D01*
X65804Y55796D01*
X65807Y55785D01*
X65810Y55773D01*
X65814Y55759D01*
X65818Y55730D01*
X65822Y55698D01*
X65824Y55664D01*
Y55663D01*
Y55660D01*
Y55654D01*
X65823Y55648D01*
Y55639D01*
X65822Y55629D01*
X65821Y55617D01*
X65819Y55605D01*
X65815Y55578D01*
X65808Y55549D01*
X65799Y55519D01*
X65786Y55491D01*
X65785Y55490D01*
X65784Y55487D01*
X65782Y55483D01*
X65779Y55479D01*
X65775Y55472D01*
X65770Y55465D01*
X65758Y55448D01*
X65743Y55430D01*
X65724Y55411D01*
X65703Y55393D01*
X65678Y55377D01*
X65677Y55376D01*
X65674Y55375D01*
X65670Y55373D01*
X65666Y55370D01*
X65658Y55368D01*
X65651Y55365D01*
X65642Y55361D01*
X65632Y55357D01*
X65620Y55354D01*
X65608Y55350D01*
X65583Y55345D01*
X65553Y55340D01*
X65522Y55338D01*
X65513D01*
X65507Y55339D01*
X65498Y55340D01*
X65488Y55341D01*
X65478Y55342D01*
X65466Y55345D01*
X65441Y55350D01*
X65413Y55358D01*
X65399Y55364D01*
X65387Y55370D01*
X65374Y55379D01*
X65361Y55387D01*
X65360Y55388D01*
X65358Y55389D01*
X65354Y55392D01*
X65350Y55396D01*
X65345Y55401D01*
X65338Y55407D01*
X65332Y55415D01*
X65325Y55422D01*
X65317Y55431D01*
X65310Y55443D01*
X65301Y55454D01*
X65294Y55466D01*
X65288Y55479D01*
X65280Y55493D01*
X65275Y55508D01*
X65269Y55525D01*
X65352Y55544D01*
Y55543D01*
X65353Y55541D01*
X65355Y55538D01*
X65357Y55533D01*
X65359Y55528D01*
X65362Y55520D01*
X65369Y55505D01*
X65378Y55489D01*
X65389Y55472D01*
X65403Y55456D01*
X65418Y55443D01*
X65420Y55441D01*
X65425Y55437D01*
X65435Y55432D01*
X65447Y55426D01*
X65462Y55420D01*
X65480Y55415D01*
X65501Y55411D01*
X65524Y55410D01*
X65532D01*
X65536Y55411D01*
X65543D01*
X65550Y55412D01*
X65568Y55415D01*
X65587Y55418D01*
X65608Y55425D01*
X65629Y55434D01*
X65648Y55446D01*
X65649D01*
X65650Y55448D01*
X65657Y55453D01*
X65665Y55460D01*
X65675Y55471D01*
X65687Y55485D01*
X65698Y55501D01*
X65708Y55520D01*
X65718Y55541D01*
Y55542D01*
X65718Y55544D01*
X65719Y55547D01*
X65720Y55552D01*
X65722Y55557D01*
X65724Y55564D01*
X65727Y55579D01*
X65730Y55598D01*
X65734Y55618D01*
X65736Y55640D01*
X65737Y55664D01*
Y55665D01*
Y55668D01*
Y55673D01*
Y55678D01*
X65736Y55685D01*
Y55693D01*
X65735Y55702D01*
X65734Y55712D01*
X65731Y55735D01*
X65727Y55759D01*
X65721Y55783D01*
X65714Y55807D01*
Y55808D01*
X65713Y55810D01*
X65711Y55812D01*
X65709Y55817D01*
X65704Y55828D01*
X65695Y55841D01*
X65685Y55856D01*
X65672Y55871D01*
X65657Y55885D01*
X65640Y55898D01*
X65639D01*
X65637Y55899D01*
X65634Y55901D01*
X65631Y55903D01*
X65626Y55905D01*
X65620Y55908D01*
X65608Y55913D01*
X65591Y55919D01*
X65572Y55923D01*
X65552Y55927D01*
X65531Y55928D01*
X65524D01*
X65519Y55927D01*
X65512D01*
X65506Y55926D01*
X65489Y55922D01*
X65470Y55918D01*
X65450Y55910D01*
X65430Y55900D01*
X65420Y55895D01*
X65411Y55887D01*
X65410Y55886D01*
X65409Y55885D01*
X65406Y55883D01*
X65402Y55880D01*
X65399Y55875D01*
X65394Y55870D01*
X65388Y55864D01*
X65384Y55857D01*
X65378Y55848D01*
X65372Y55839D01*
X65366Y55830D01*
X65361Y55819D01*
X65356Y55807D01*
X65351Y55794D01*
X65347Y55780D01*
X65343Y55765D01*
X65258Y55786D01*
Y55787D01*
X65259Y55791D01*
X65261Y55797D01*
X65264Y55804D01*
X65266Y55812D01*
X65270Y55822D01*
X65275Y55834D01*
X65280Y55846D01*
X65293Y55871D01*
X65310Y55897D01*
X65320Y55910D01*
X65330Y55923D01*
X65341Y55934D01*
X65354Y55945D01*
X65355Y55946D01*
X65357Y55948D01*
X65362Y55950D01*
X65366Y55954D01*
X65374Y55958D01*
X65381Y55963D01*
X65391Y55968D01*
X65401Y55972D01*
X65413Y55978D01*
X65426Y55982D01*
X65440Y55987D01*
X65455Y55992D01*
X65471Y55995D01*
X65487Y55997D01*
X65505Y55999D01*
X65523Y56000D01*
X65534D01*
X65541Y55999D01*
D02*
G37*
G36*
X58977D02*
X58984D01*
X58993Y55998D01*
X59002Y55996D01*
X59013Y55994D01*
X59024Y55991D01*
X59037Y55987D01*
X59050Y55982D01*
X59063Y55977D01*
X59077Y55970D01*
X59090Y55961D01*
X59103Y55952D01*
X59116Y55941D01*
X59128Y55928D01*
X59129Y55927D01*
X59130Y55924D01*
X59133Y55921D01*
X59137Y55914D01*
X59142Y55906D01*
X59147Y55896D01*
X59153Y55884D01*
X59158Y55871D01*
X59165Y55856D01*
X59170Y55838D01*
X59175Y55819D01*
X59179Y55798D01*
X59184Y55773D01*
X59187Y55748D01*
X59189Y55720D01*
X59190Y55690D01*
Y55689D01*
Y55688D01*
Y55686D01*
Y55682D01*
X59189Y55673D01*
Y55660D01*
X59188Y55645D01*
X59186Y55627D01*
X59184Y55608D01*
X59181Y55587D01*
X59178Y55565D01*
X59173Y55542D01*
X59167Y55520D01*
X59161Y55498D01*
X59153Y55477D01*
X59143Y55456D01*
X59133Y55437D01*
X59121Y55420D01*
X59120Y55419D01*
X59118Y55418D01*
X59115Y55414D01*
X59110Y55408D01*
X59105Y55403D01*
X59097Y55397D01*
X59088Y55390D01*
X59079Y55383D01*
X59068Y55377D01*
X59056Y55369D01*
X59042Y55364D01*
X59028Y55357D01*
X59012Y55353D01*
X58995Y55349D01*
X58978Y55347D01*
X58959Y55346D01*
X58952D01*
X58946Y55347D01*
X58940D01*
X58933Y55348D01*
X58915Y55352D01*
X58896Y55357D01*
X58875Y55364D01*
X58855Y55375D01*
X58845Y55381D01*
X58836Y55389D01*
X58835Y55390D01*
X58834Y55391D01*
X58831Y55394D01*
X58828Y55396D01*
X58824Y55401D01*
X58820Y55406D01*
X58810Y55419D01*
X58799Y55436D01*
X58790Y55456D01*
X58782Y55479D01*
X58776Y55505D01*
X58855Y55512D01*
Y55511D01*
X58856Y55510D01*
X58857Y55504D01*
X58860Y55496D01*
X58863Y55486D01*
X58867Y55475D01*
X58873Y55464D01*
X58879Y55454D01*
X58885Y55445D01*
X58887Y55443D01*
X58891Y55440D01*
X58897Y55434D01*
X58907Y55428D01*
X58919Y55422D01*
X58932Y55417D01*
X58947Y55413D01*
X58964Y55411D01*
X58971D01*
X58978Y55412D01*
X58986Y55414D01*
X58997Y55417D01*
X59008Y55420D01*
X59020Y55425D01*
X59031Y55432D01*
X59032Y55433D01*
X59037Y55437D01*
X59044Y55443D01*
X59052Y55453D01*
X59061Y55464D01*
X59071Y55477D01*
X59081Y55493D01*
X59090Y55512D01*
Y55513D01*
X59091Y55515D01*
X59092Y55517D01*
X59093Y55521D01*
X59094Y55527D01*
X59096Y55533D01*
X59098Y55541D01*
X59100Y55550D01*
X59103Y55560D01*
X59105Y55571D01*
X59106Y55583D01*
X59107Y55596D01*
X59109Y55611D01*
X59110Y55626D01*
X59111Y55642D01*
Y55659D01*
X59110Y55658D01*
X59106Y55652D01*
X59100Y55645D01*
X59092Y55636D01*
X59082Y55625D01*
X59070Y55614D01*
X59057Y55604D01*
X59043Y55595D01*
X59042D01*
X59041Y55594D01*
X59035Y55591D01*
X59027Y55589D01*
X59016Y55584D01*
X59003Y55580D01*
X58988Y55577D01*
X58972Y55575D01*
X58956Y55574D01*
X58948D01*
X58943Y55575D01*
X58935Y55576D01*
X58928Y55577D01*
X58919Y55578D01*
X58909Y55581D01*
X58888Y55588D01*
X58877Y55592D01*
X58866Y55599D01*
X58855Y55605D01*
X58843Y55613D01*
X58832Y55622D01*
X58822Y55632D01*
X58821Y55633D01*
X58819Y55635D01*
X58816Y55638D01*
X58813Y55642D01*
X58809Y55649D01*
X58804Y55655D01*
X58799Y55663D01*
X58794Y55673D01*
X58788Y55683D01*
X58784Y55694D01*
X58779Y55707D01*
X58775Y55720D01*
X58772Y55734D01*
X58769Y55749D01*
X58767Y55765D01*
X58766Y55782D01*
Y55783D01*
Y55785D01*
Y55787D01*
Y55792D01*
X58767Y55798D01*
Y55803D01*
X58770Y55818D01*
X58773Y55835D01*
X58777Y55854D01*
X58784Y55874D01*
X58793Y55894D01*
Y55895D01*
X58794Y55896D01*
X58796Y55898D01*
X58798Y55902D01*
X58803Y55911D01*
X58811Y55923D01*
X58822Y55936D01*
X58834Y55949D01*
X58848Y55962D01*
X58864Y55973D01*
X58865D01*
X58866Y55974D01*
X58869Y55976D01*
X58873Y55977D01*
X58882Y55982D01*
X58894Y55986D01*
X58909Y55992D01*
X58927Y55995D01*
X58946Y55999D01*
X58968Y56000D01*
X58972D01*
X58977Y55999D01*
D02*
G37*
G36*
X59541D02*
X59549D01*
X59559Y55998D01*
X59571Y55996D01*
X59583Y55994D01*
X59610Y55990D01*
X59638Y55982D01*
X59666Y55972D01*
X59679Y55966D01*
X59692Y55958D01*
X59693Y55957D01*
X59694Y55957D01*
X59698Y55954D01*
X59702Y55950D01*
X59707Y55946D01*
X59714Y55941D01*
X59721Y55934D01*
X59729Y55927D01*
X59736Y55919D01*
X59744Y55910D01*
X59761Y55889D01*
X59777Y55864D01*
X59791Y55836D01*
Y55835D01*
X59792Y55833D01*
X59793Y55828D01*
X59796Y55822D01*
X59798Y55815D01*
X59801Y55806D01*
X59804Y55796D01*
X59807Y55785D01*
X59810Y55773D01*
X59814Y55759D01*
X59818Y55730D01*
X59822Y55698D01*
X59824Y55664D01*
Y55663D01*
Y55660D01*
Y55654D01*
X59823Y55648D01*
Y55639D01*
X59822Y55629D01*
X59821Y55617D01*
X59819Y55605D01*
X59815Y55578D01*
X59808Y55549D01*
X59799Y55519D01*
X59786Y55491D01*
X59785Y55490D01*
X59784Y55487D01*
X59782Y55483D01*
X59779Y55479D01*
X59775Y55472D01*
X59770Y55465D01*
X59758Y55448D01*
X59743Y55430D01*
X59724Y55411D01*
X59703Y55393D01*
X59678Y55377D01*
X59677Y55376D01*
X59674Y55375D01*
X59670Y55373D01*
X59666Y55370D01*
X59658Y55368D01*
X59651Y55365D01*
X59642Y55361D01*
X59632Y55357D01*
X59620Y55354D01*
X59608Y55350D01*
X59583Y55345D01*
X59553Y55340D01*
X59522Y55338D01*
X59513D01*
X59507Y55339D01*
X59498Y55340D01*
X59488Y55341D01*
X59478Y55342D01*
X59466Y55345D01*
X59441Y55350D01*
X59413Y55358D01*
X59400Y55364D01*
X59387Y55370D01*
X59374Y55379D01*
X59361Y55387D01*
X59360Y55388D01*
X59358Y55389D01*
X59354Y55392D01*
X59350Y55396D01*
X59345Y55401D01*
X59338Y55407D01*
X59332Y55415D01*
X59325Y55422D01*
X59317Y55431D01*
X59310Y55443D01*
X59301Y55454D01*
X59294Y55466D01*
X59288Y55479D01*
X59280Y55493D01*
X59275Y55508D01*
X59269Y55525D01*
X59352Y55544D01*
Y55543D01*
X59353Y55541D01*
X59355Y55538D01*
X59357Y55533D01*
X59359Y55528D01*
X59362Y55520D01*
X59369Y55505D01*
X59378Y55489D01*
X59389Y55472D01*
X59403Y55456D01*
X59418Y55443D01*
X59420Y55441D01*
X59425Y55437D01*
X59435Y55432D01*
X59447Y55426D01*
X59462Y55420D01*
X59480Y55415D01*
X59501Y55411D01*
X59524Y55410D01*
X59532D01*
X59536Y55411D01*
X59543D01*
X59550Y55412D01*
X59568Y55415D01*
X59587Y55418D01*
X59608Y55425D01*
X59629Y55434D01*
X59648Y55446D01*
X59649D01*
X59650Y55448D01*
X59657Y55453D01*
X59665Y55460D01*
X59675Y55471D01*
X59687Y55485D01*
X59698Y55501D01*
X59708Y55520D01*
X59718Y55541D01*
Y55542D01*
X59718Y55544D01*
X59719Y55547D01*
X59720Y55552D01*
X59722Y55557D01*
X59724Y55564D01*
X59727Y55579D01*
X59730Y55598D01*
X59734Y55618D01*
X59736Y55640D01*
X59737Y55664D01*
Y55665D01*
Y55668D01*
Y55673D01*
Y55678D01*
X59736Y55685D01*
Y55693D01*
X59735Y55702D01*
X59734Y55712D01*
X59731Y55735D01*
X59727Y55759D01*
X59721Y55783D01*
X59714Y55807D01*
Y55808D01*
X59713Y55810D01*
X59711Y55812D01*
X59709Y55817D01*
X59704Y55828D01*
X59695Y55841D01*
X59685Y55856D01*
X59672Y55871D01*
X59657Y55885D01*
X59640Y55898D01*
X59639D01*
X59637Y55899D01*
X59634Y55901D01*
X59631Y55903D01*
X59626Y55905D01*
X59620Y55908D01*
X59608Y55913D01*
X59591Y55919D01*
X59572Y55923D01*
X59552Y55927D01*
X59531Y55928D01*
X59524D01*
X59519Y55927D01*
X59512D01*
X59506Y55926D01*
X59489Y55922D01*
X59470Y55918D01*
X59450Y55910D01*
X59430Y55900D01*
X59420Y55895D01*
X59411Y55887D01*
X59410Y55886D01*
X59409Y55885D01*
X59406Y55883D01*
X59402Y55880D01*
X59399Y55875D01*
X59394Y55870D01*
X59388Y55864D01*
X59384Y55857D01*
X59378Y55848D01*
X59372Y55839D01*
X59366Y55830D01*
X59361Y55819D01*
X59356Y55807D01*
X59351Y55794D01*
X59347Y55780D01*
X59343Y55765D01*
X59258Y55786D01*
Y55787D01*
X59259Y55791D01*
X59261Y55797D01*
X59264Y55804D01*
X59266Y55812D01*
X59270Y55822D01*
X59275Y55834D01*
X59280Y55846D01*
X59293Y55871D01*
X59310Y55897D01*
X59320Y55910D01*
X59330Y55923D01*
X59341Y55934D01*
X59354Y55945D01*
X59355Y55946D01*
X59357Y55948D01*
X59362Y55950D01*
X59366Y55954D01*
X59374Y55958D01*
X59381Y55963D01*
X59391Y55968D01*
X59401Y55972D01*
X59413Y55978D01*
X59426Y55982D01*
X59440Y55987D01*
X59455Y55992D01*
X59471Y55995D01*
X59487Y55997D01*
X59505Y55999D01*
X59523Y56000D01*
X59534D01*
X59541Y55999D01*
D02*
G37*
G36*
X45989Y44829D02*
X45489D01*
X45490Y44828D01*
X45493Y44824D01*
X45499Y44818D01*
X45505Y44809D01*
X45514Y44799D01*
X45523Y44786D01*
X45533Y44771D01*
X45543Y44754D01*
Y44754D01*
X45544Y44753D01*
X45548Y44747D01*
X45553Y44738D01*
X45558Y44727D01*
X45565Y44714D01*
X45571Y44700D01*
X45577Y44686D01*
X45583Y44672D01*
X45507D01*
Y44673D01*
X45505Y44675D01*
X45504Y44679D01*
X45502Y44683D01*
X45499Y44689D01*
X45495Y44695D01*
X45486Y44711D01*
X45476Y44729D01*
X45463Y44748D01*
X45448Y44767D01*
X45432Y44787D01*
X45431Y44788D01*
X45430Y44789D01*
X45428Y44791D01*
X45425Y44795D01*
X45416Y44803D01*
X45405Y44815D01*
X45392Y44826D01*
X45377Y44838D01*
X45362Y44848D01*
X45346Y44857D01*
Y44908D01*
X45989D01*
Y44829D01*
D02*
G37*
G36*
X45743Y44502D02*
X45752D01*
X45763Y44501D01*
X45774Y44500D01*
X45799Y44497D01*
X45825Y44494D01*
X45850Y44488D01*
X45862Y44484D01*
X45873Y44481D01*
X45874D01*
X45876Y44480D01*
X45879Y44478D01*
X45883Y44476D01*
X45893Y44471D01*
X45906Y44462D01*
X45921Y44451D01*
X45935Y44438D01*
X45951Y44422D01*
X45965Y44401D01*
Y44400D01*
X45967Y44398D01*
X45968Y44396D01*
X45970Y44391D01*
X45973Y44386D01*
X45976Y44378D01*
X45979Y44371D01*
X45982Y44361D01*
X45986Y44351D01*
X45989Y44340D01*
X45992Y44328D01*
X45994Y44314D01*
X45996Y44300D01*
X45998Y44286D01*
X46000Y44252D01*
Y44244D01*
X45999Y44238D01*
Y44230D01*
X45998Y44221D01*
X45997Y44211D01*
X45996Y44201D01*
X45993Y44178D01*
X45987Y44153D01*
X45980Y44129D01*
X45970Y44105D01*
Y44104D01*
X45968Y44103D01*
X45966Y44100D01*
X45964Y44096D01*
X45957Y44086D01*
X45946Y44074D01*
X45933Y44060D01*
X45919Y44047D01*
X45900Y44034D01*
X45880Y44024D01*
X45879D01*
X45877Y44023D01*
X45873Y44022D01*
X45869Y44020D01*
X45863Y44018D01*
X45856Y44017D01*
X45847Y44014D01*
X45837Y44012D01*
X45826Y44010D01*
X45814Y44007D01*
X45801Y44006D01*
X45787Y44004D01*
X45772Y44002D01*
X45755Y44001D01*
X45737Y44000D01*
X45719D01*
X45349D01*
Y44085D01*
X45719D01*
X45720D01*
X45723D01*
X45727D01*
X45733D01*
X45739Y44086D01*
X45748D01*
X45765Y44087D01*
X45786Y44089D01*
X45806Y44092D01*
X45825Y44095D01*
X45834Y44097D01*
X45842Y44100D01*
X45844Y44101D01*
X45848Y44103D01*
X45855Y44107D01*
X45864Y44113D01*
X45873Y44119D01*
X45884Y44129D01*
X45894Y44140D01*
X45902Y44153D01*
X45903Y44154D01*
X45906Y44159D01*
X45908Y44167D01*
X45912Y44178D01*
X45917Y44191D01*
X45920Y44208D01*
X45922Y44226D01*
X45923Y44245D01*
Y44254D01*
X45922Y44260D01*
Y44268D01*
X45921Y44276D01*
X45918Y44297D01*
X45913Y44319D01*
X45906Y44340D01*
X45896Y44361D01*
X45889Y44370D01*
X45882Y44378D01*
X45881Y44379D01*
X45880Y44380D01*
X45877Y44382D01*
X45873Y44385D01*
X45868Y44387D01*
X45862Y44391D01*
X45854Y44395D01*
X45846Y44398D01*
X45835Y44402D01*
X45823Y44405D01*
X45810Y44409D01*
X45795Y44411D01*
X45778Y44414D01*
X45761Y44416D01*
X45740Y44418D01*
X45719D01*
X45349D01*
Y44503D01*
X45719D01*
X45720D01*
X45724D01*
X45728D01*
X45735D01*
X45743Y44502D01*
D02*
G37*
G36*
X74806Y20000D02*
X74728D01*
Y20500D01*
X74727Y20499D01*
X74722Y20496D01*
X74717Y20490D01*
X74707Y20484D01*
X74697Y20475D01*
X74684Y20466D01*
X74669Y20456D01*
X74653Y20446D01*
X74652D01*
X74651Y20445D01*
X74645Y20441D01*
X74636Y20436D01*
X74625Y20431D01*
X74612Y20424D01*
X74598Y20418D01*
X74584Y20411D01*
X74570Y20406D01*
Y20482D01*
X74571D01*
X74573Y20484D01*
X74577Y20484D01*
X74582Y20487D01*
X74587Y20490D01*
X74594Y20494D01*
X74609Y20503D01*
X74628Y20513D01*
X74646Y20526D01*
X74666Y20541D01*
X74685Y20557D01*
X74686Y20558D01*
X74687Y20558D01*
X74690Y20561D01*
X74693Y20564D01*
X74702Y20573D01*
X74713Y20584D01*
X74724Y20597D01*
X74736Y20612D01*
X74746Y20627D01*
X74755Y20643D01*
X74806D01*
Y20000D01*
D02*
G37*
G36*
X74433Y20564D02*
X74085D01*
Y20366D01*
X74386D01*
Y20290D01*
X74085D01*
Y20000D01*
X74000D01*
Y20640D01*
X74433D01*
Y20564D01*
D02*
G37*
%LPC*%
G36*
X58969Y55935D02*
X58964D01*
X58960Y55934D01*
X58951Y55933D01*
X58939Y55931D01*
X58926Y55925D01*
X58911Y55919D01*
X58897Y55908D01*
X58889Y55903D01*
X58883Y55896D01*
Y55895D01*
X58881Y55894D01*
X58877Y55888D01*
X58872Y55879D01*
X58864Y55867D01*
X58858Y55851D01*
X58852Y55833D01*
X58848Y55811D01*
X58847Y55786D01*
Y55786D01*
Y55784D01*
Y55780D01*
X58848Y55775D01*
Y55770D01*
X58848Y55763D01*
X58851Y55749D01*
X58855Y55732D01*
X58861Y55714D01*
X58871Y55698D01*
X58883Y55682D01*
X58885Y55680D01*
X58889Y55675D01*
X58897Y55670D01*
X58907Y55663D01*
X58920Y55655D01*
X58934Y55650D01*
X58952Y55645D01*
X58971Y55643D01*
X58977D01*
X58981Y55644D01*
X58990Y55645D01*
X59003Y55648D01*
X59017Y55652D01*
X59032Y55660D01*
X59047Y55669D01*
X59062Y55682D01*
X59064Y55684D01*
X59068Y55688D01*
X59074Y55697D01*
X59081Y55709D01*
X59087Y55723D01*
X59093Y55740D01*
X59097Y55760D01*
X59099Y55782D01*
Y55784D01*
Y55788D01*
X59098Y55797D01*
X59097Y55807D01*
X59095Y55819D01*
X59092Y55832D01*
X59088Y55846D01*
X59082Y55859D01*
X59081Y55861D01*
X59079Y55866D01*
X59075Y55872D01*
X59069Y55881D01*
X59063Y55889D01*
X59055Y55899D01*
X59045Y55908D01*
X59034Y55916D01*
X59032Y55917D01*
X59029Y55919D01*
X59022Y55922D01*
X59014Y55925D01*
X59005Y55929D01*
X58994Y55933D01*
X58982Y55934D01*
X58969Y55935D01*
D02*
G37*
%LPD*%
D11*
X22697Y32153D02*
X27303D01*
Y29847D02*
Y32153D01*
X22697Y29847D02*
X27303D01*
X22697D02*
Y32153D01*
X28873D02*
X33479D01*
Y29847D02*
Y32153D01*
X28873Y29847D02*
X33479D01*
X28873D02*
Y32153D01*
X68127Y54847D02*
Y57153D01*
X63521D02*
X68127D01*
X63521Y54847D02*
Y57153D01*
Y54847D02*
X68127D01*
X62127D02*
Y57153D01*
X57521D02*
X62127D01*
X57521Y54847D02*
Y57153D01*
Y54847D02*
X62127D01*
X20120Y35478D02*
X71880D01*
Y52523D01*
X20120D02*
X71880D01*
X20120Y35478D02*
Y52523D01*
X68591Y17385D02*
Y22615D01*
Y17385D02*
X79409D01*
Y22615D01*
X68591D02*
X79409D01*
M02*
