G04*
G04 #@! TF.GenerationSoftware,Altium Limited,Altium Designer,21.9.2 (33)*
G04*
G04 Layer_Color=8421504*
%FSLAX43Y43*%
%MOMM*%
G71*
G04*
G04 #@! TF.SameCoordinates,8A64DE41-CE10-4B2C-A13A-6A112CDDCE5D*
G04*
G04*
G04 #@! TF.FilePolarity,Positive*
G04*
G01*
G75*
%ADD17R,1.000X2.290*%
%ADD18R,0.650X1.525*%
%ADD19R,1.100X1.700*%
%ADD20R,3.000X1.600*%
%ADD21R,6.200X5.800*%
%ADD22R,1.600X3.000*%
%ADD23R,5.800X6.200*%
%ADD24R,1.754X1.806*%
%ADD25R,4.242X3.810*%
D17*
X39190Y81955D02*
D03*
X46810D02*
D03*
Y72045D02*
D03*
X41730D02*
D03*
X39190D02*
D03*
D18*
X53095Y106712D02*
D03*
X54365D02*
D03*
X55635D02*
D03*
X56905D02*
D03*
Y101288D02*
D03*
X55635D02*
D03*
X54365D02*
D03*
X53095D02*
D03*
X35095Y106712D02*
D03*
X36365D02*
D03*
X37635D02*
D03*
X38905D02*
D03*
Y101288D02*
D03*
X37635D02*
D03*
X36365D02*
D03*
X35095D02*
D03*
D19*
X36650Y98000D02*
D03*
X39350D02*
D03*
X55350Y98000D02*
D03*
X52650D02*
D03*
D20*
X31080Y86715D02*
D03*
Y91285D02*
D03*
D21*
X23900Y89000D02*
D03*
D22*
X53715Y81920D02*
D03*
X58285D02*
D03*
D23*
X56000Y89100D02*
D03*
D24*
X23824Y31000D02*
D03*
X26176D02*
D03*
X30000D02*
D03*
X32352D02*
D03*
X64648Y56000D02*
D03*
X67000D02*
D03*
X58648D02*
D03*
X61000D02*
D03*
D25*
X77188Y20000D02*
D03*
X70812D02*
D03*
M02*
