G04*
G04 #@! TF.GenerationSoftware,Altium Limited,Altium Designer,21.9.2 (33)*
G04*
G04 Layer_Color=255*
%FSLAX43Y43*%
%MOMM*%
G71*
G04*
G04 #@! TF.SameCoordinates,8A64DE41-CE10-4B2C-A13A-6A112CDDCE5D*
G04*
G04*
G04 #@! TF.FilePolarity,Positive*
G04*
G01*
G75*
%ADD42C,1.350*%
%ADD43R,1.350X1.350*%
%ADD46C,1.650*%
%ADD47R,1.650X1.650*%
%ADD48C,1.250*%
%ADD49R,1.250X1.250*%
%ADD50C,1.800*%
%ADD51R,1.650X1.650*%
%ADD52C,1.200*%
%ADD53C,1.508*%
%ADD54R,1.508X1.508*%
D42*
X21870Y51748D02*
D03*
X24410D02*
D03*
X26950D02*
D03*
X29490D02*
D03*
X62510D02*
D03*
X65050D02*
D03*
X67590D02*
D03*
X70130D02*
D03*
Y36253D02*
D03*
X67590D02*
D03*
X65050D02*
D03*
X62510D02*
D03*
X29490D02*
D03*
X26950D02*
D03*
X24410D02*
D03*
D43*
X21870D02*
D03*
D46*
X66080Y118000D02*
D03*
X61000D02*
D03*
X41080Y118000D02*
D03*
X36000D02*
D03*
X87652Y24751D02*
D03*
Y19671D02*
D03*
X87652Y48320D02*
D03*
Y43241D02*
D03*
X6000Y49080D02*
D03*
Y44000D02*
D03*
Y38920D02*
D03*
X76000Y6000D02*
D03*
X70920D02*
D03*
D47*
X55920Y118000D02*
D03*
X30920Y118000D02*
D03*
X81080Y6000D02*
D03*
D48*
X42190Y101190D02*
D03*
Y103730D02*
D03*
Y106270D02*
D03*
Y108810D02*
D03*
X49810D02*
D03*
Y106270D02*
D03*
Y103730D02*
D03*
Y95810D02*
D03*
Y93270D02*
D03*
Y90730D02*
D03*
Y88190D02*
D03*
X42190D02*
D03*
Y90730D02*
D03*
Y93270D02*
D03*
D49*
X49810Y101190D02*
D03*
X42190Y95810D02*
D03*
D50*
X50700Y23000D02*
D03*
X61100D02*
D03*
X57000D02*
D03*
X44350Y9800D02*
D03*
Y23000D02*
D03*
D51*
X87652Y29831D02*
D03*
X87652Y38160D02*
D03*
X6000Y54160D02*
D03*
D52*
X22400Y59910D02*
D03*
Y64990D02*
D03*
X13421Y29538D02*
D03*
X8341D02*
D03*
D53*
X30619Y20167D02*
D03*
X28079D02*
D03*
X25539D02*
D03*
X22999D02*
D03*
X17919D02*
D03*
X15379D02*
D03*
X38650Y62050D02*
D03*
X41190D02*
D03*
X46270D02*
D03*
X48810D02*
D03*
X51350D02*
D03*
X53890D02*
D03*
D54*
X12839Y20167D02*
D03*
X36110Y62050D02*
D03*
M02*
