G04*
G04 #@! TF.GenerationSoftware,Altium Limited,Altium Designer,21.9.2 (33)*
G04*
G04 Layer_Physical_Order=1*
G04 Layer_Color=255*
%FSLAX43Y43*%
%MOMM*%
G71*
G04*
G04 #@! TF.SameCoordinates,8A64DE41-CE10-4B2C-A13A-6A112CDDCE5D*
G04*
G04*
G04 #@! TF.FilePolarity,Positive*
G04*
G01*
G75*
%ADD14C,0.254*%
%ADD17R,1.000X2.290*%
%ADD18R,0.650X1.525*%
%ADD19R,1.100X1.700*%
%ADD20R,3.000X1.600*%
%ADD21R,6.200X5.800*%
%ADD22R,1.600X3.000*%
%ADD23R,5.800X6.200*%
%ADD24R,1.754X1.806*%
%ADD25R,4.242X3.810*%
%ADD42C,1.350*%
%ADD43R,1.350X1.350*%
%ADD45C,0.381*%
%ADD46C,1.650*%
%ADD47R,1.650X1.650*%
%ADD48C,1.250*%
%ADD49R,1.250X1.250*%
%ADD50C,1.800*%
%ADD51R,1.650X1.650*%
%ADD52C,1.200*%
%ADD53C,1.508*%
%ADD54R,1.508X1.508*%
%ADD55C,1.270*%
D14*
X55437Y101528D02*
X56000Y102091D01*
X54365Y106712D02*
Y116445D01*
X55635Y106712D02*
Y112635D01*
X37635Y106712D02*
Y116365D01*
X36365Y106712D02*
Y112555D01*
X30920Y118000D02*
X36365Y112555D01*
X36000Y118000D02*
X37635Y116365D01*
X54365Y116445D02*
X55920Y118000D01*
X55635Y112635D02*
X61000Y118000D01*
X55700Y28000D02*
X62596D01*
X51510Y101254D02*
X53061D01*
X53095Y101288D01*
X56962Y101345D02*
Y103687D01*
X57020Y103744D01*
X56905Y101288D02*
X56962Y101345D01*
X56000Y105000D02*
X56749Y105749D01*
X56000Y102091D02*
Y105000D01*
X56749Y105749D02*
Y106556D01*
X56905Y106712D01*
X39048Y101145D02*
X40470D01*
X38905Y101288D02*
X39048Y101145D01*
X35095Y101726D02*
X36806Y103436D01*
Y103806D02*
X37000Y104000D01*
X35095Y101288D02*
Y101726D01*
X36806Y103436D02*
Y103806D01*
X38905Y102996D02*
Y106712D01*
X37635Y101726D02*
X38905Y102996D01*
X37635Y101288D02*
Y101726D01*
X53680Y81955D02*
X53715Y81920D01*
X46810Y81955D02*
X53680D01*
X17000Y70000D02*
X31080Y84080D01*
X6910Y59910D02*
X17000Y70000D01*
X39685D02*
X41730Y72045D01*
X17000Y70000D02*
X39685D01*
X50760Y64000D02*
X60000D01*
X48810Y62050D02*
X50760Y64000D01*
X60000D02*
X66000Y58000D01*
X67000Y57000D01*
X31080Y84080D02*
Y86715D01*
X52650Y98000D02*
X53000Y97650D01*
Y97000D02*
Y97650D01*
X56000Y94000D02*
X59000D01*
X53000Y97000D02*
X56000Y94000D01*
X60000Y84335D02*
Y93000D01*
X59000Y94000D02*
X60000Y93000D01*
X58285Y81920D02*
Y82620D01*
X60000Y84335D01*
X33608Y91958D02*
X39350Y97700D01*
X31080Y91285D02*
X31753Y91958D01*
X33608D01*
X39350Y97700D02*
Y98000D01*
X40742Y96308D02*
X41692D01*
X39350Y97700D02*
X40742Y96308D01*
X41692D02*
X42190Y95810D01*
X39350Y98300D02*
X42190Y101140D01*
X39350Y98000D02*
Y98300D01*
X42190Y101140D02*
Y101190D01*
X37635Y100015D02*
X39350Y98300D01*
X37635Y100015D02*
Y101288D01*
X52650Y98000D02*
Y98300D01*
X50308Y100642D02*
X52650Y98300D01*
X50308Y100642D02*
Y100692D01*
X49810Y101190D02*
X50308Y100692D01*
X51277Y97277D02*
X52227D01*
X49810Y95810D02*
X51277Y97277D01*
X52650Y97700D02*
Y98000D01*
X52227Y97277D02*
X52650Y97700D01*
X32000Y21548D02*
Y31000D01*
Y33743D01*
X65050Y36253D02*
X67590D01*
X70596Y20000D02*
X70812D01*
X62596Y28000D02*
X70596Y20000D01*
X50700Y23000D02*
X55700Y28000D01*
X65299Y14701D02*
X72379D01*
X81080Y6000D01*
X57000Y23000D02*
X65299Y14701D01*
X15200Y9800D02*
X44350D01*
X6000Y19000D02*
X15200Y9800D01*
X6000Y19000D02*
Y38920D01*
X28095Y30958D02*
X29958D01*
X30000Y31000D01*
X26218Y30958D02*
X28095D01*
X26176Y31000D02*
X26218Y30958D01*
X62816Y55961D02*
X64609D01*
X64648Y56000D01*
X61000D02*
X61039Y55961D01*
X62816D01*
X58648Y54352D02*
X61252Y51748D01*
X62510D01*
X58648Y54352D02*
Y56000D01*
X53890Y62050D02*
X58648Y57292D01*
Y56000D02*
Y57292D01*
X67000Y53698D02*
Y56000D01*
X65050Y51748D02*
X67000Y53698D01*
Y56000D02*
Y57000D01*
X30619Y20167D02*
X32000Y21548D01*
X23824Y21882D02*
X25539Y20167D01*
X23824Y21882D02*
Y31000D01*
X13421Y29538D02*
X15379Y27580D01*
Y20167D02*
Y27580D01*
X13421Y29538D02*
Y36579D01*
X6000Y44000D02*
X13421Y36579D01*
X3105Y46895D02*
X6000Y44000D01*
X3105Y46895D02*
Y56105D01*
X6910Y59910D01*
X22400D01*
X36510D02*
X38650Y62050D01*
X22400Y59910D02*
X36510D01*
X66961Y38161D02*
X87652Y38160D01*
X79358Y38124D02*
Y38139D01*
Y38124D02*
X87652Y29831D01*
X87751Y24751D02*
X91000Y28000D01*
X87652Y24751D02*
X87751D01*
X87652Y43241D02*
X91000Y39892D01*
Y28000D02*
Y39892D01*
X82901Y20000D02*
X87652Y24751D01*
X77200Y20000D02*
X82901D01*
X65050Y36253D02*
X66958Y38160D01*
X29490Y36253D02*
X32000Y33743D01*
X23824Y31026D02*
X26950Y34152D01*
X23824Y31000D02*
Y31026D01*
X26950Y34152D02*
Y36253D01*
X21998Y54160D02*
X24410Y51748D01*
X6000Y54160D02*
X21998D01*
D17*
X39190Y81955D02*
D03*
X46810D02*
D03*
Y72045D02*
D03*
X41730D02*
D03*
X39190D02*
D03*
D18*
X53095Y106712D02*
D03*
X54365D02*
D03*
X55635D02*
D03*
X56905D02*
D03*
Y101288D02*
D03*
X55635D02*
D03*
X54365D02*
D03*
X53095D02*
D03*
X35095Y106712D02*
D03*
X36365D02*
D03*
X37635D02*
D03*
X38905D02*
D03*
Y101288D02*
D03*
X37635D02*
D03*
X36365D02*
D03*
X35095D02*
D03*
D19*
X36650Y98000D02*
D03*
X39350D02*
D03*
X55350Y98000D02*
D03*
X52650D02*
D03*
D20*
X31080Y86715D02*
D03*
Y91285D02*
D03*
D21*
X23900Y89000D02*
D03*
D22*
X53715Y81920D02*
D03*
X58285D02*
D03*
D23*
X56000Y89100D02*
D03*
D24*
X23824Y31000D02*
D03*
X26176D02*
D03*
X30000D02*
D03*
X32352D02*
D03*
X64648Y56000D02*
D03*
X67000D02*
D03*
X58648D02*
D03*
X61000D02*
D03*
D25*
X77188Y20000D02*
D03*
X70812D02*
D03*
D42*
X21870Y51748D02*
D03*
X24410D02*
D03*
X26950D02*
D03*
X29490D02*
D03*
X62510D02*
D03*
X65050D02*
D03*
X67590D02*
D03*
X70130D02*
D03*
Y36253D02*
D03*
X67590D02*
D03*
X65050D02*
D03*
X62510D02*
D03*
X29490D02*
D03*
X26950D02*
D03*
X24410D02*
D03*
D43*
X21870D02*
D03*
D45*
X23900Y89000D02*
X23900Y89000D01*
X28000D01*
X56000Y89100D02*
X56000Y89100D01*
Y85000D02*
Y89100D01*
X53444Y98660D02*
X55635Y100851D01*
X53009Y98660D02*
X53444D01*
X52650Y98300D02*
X53009Y98660D01*
X55635Y100851D02*
Y101288D01*
X54348Y101298D02*
X54361Y101284D01*
X54348Y101298D02*
Y102953D01*
X54330Y102971D02*
X54348Y102953D01*
X54361Y101284D02*
X54365Y101288D01*
X55379Y98029D02*
X56747D01*
X55350Y98000D02*
X55379Y98029D01*
X53073Y106734D02*
Y108432D01*
Y106734D02*
X53095Y106712D01*
X53052Y108453D02*
X53073Y108432D01*
X36365Y101288D02*
X36375Y101278D01*
Y99709D02*
Y101278D01*
Y99709D02*
X36385Y99699D01*
X36517Y98133D02*
Y99567D01*
Y98133D02*
X36650Y98000D01*
X36385Y99699D02*
X36517Y99567D01*
X35085Y106722D02*
X35095Y106712D01*
X33419Y106722D02*
X35085D01*
X46855Y72000D02*
X50000D01*
X46810Y72045D02*
X46855Y72000D01*
D46*
X66080Y118000D02*
D03*
X61000D02*
D03*
X41080Y118000D02*
D03*
X36000D02*
D03*
X87652Y24751D02*
D03*
Y19671D02*
D03*
X87652Y48320D02*
D03*
Y43241D02*
D03*
X6000Y49080D02*
D03*
Y44000D02*
D03*
Y38920D02*
D03*
X76000Y6000D02*
D03*
X70920D02*
D03*
D47*
X55920Y118000D02*
D03*
X30920Y118000D02*
D03*
X81080Y6000D02*
D03*
D48*
X42190Y101190D02*
D03*
Y103730D02*
D03*
Y106270D02*
D03*
Y108810D02*
D03*
X49810D02*
D03*
Y106270D02*
D03*
Y103730D02*
D03*
Y95810D02*
D03*
Y93270D02*
D03*
Y90730D02*
D03*
Y88190D02*
D03*
X42190D02*
D03*
Y90730D02*
D03*
Y93270D02*
D03*
D49*
X49810Y101190D02*
D03*
X42190Y95810D02*
D03*
D50*
X50700Y23000D02*
D03*
X61100D02*
D03*
X57000D02*
D03*
X44350Y9800D02*
D03*
Y23000D02*
D03*
X50700Y9800D02*
D03*
X61100D02*
D03*
X57000D02*
D03*
D51*
X87652Y29831D02*
D03*
X87652Y38160D02*
D03*
X6000Y54160D02*
D03*
D52*
X22400Y59910D02*
D03*
Y64990D02*
D03*
X13421Y29538D02*
D03*
X8341D02*
D03*
D53*
X30619Y20167D02*
D03*
X28079D02*
D03*
X25539D02*
D03*
X22999D02*
D03*
X17919D02*
D03*
X15379D02*
D03*
X38650Y62050D02*
D03*
X41190D02*
D03*
X46270D02*
D03*
X48810D02*
D03*
X51350D02*
D03*
X53890D02*
D03*
D54*
X12839Y20167D02*
D03*
X36110Y62050D02*
D03*
D55*
X28000Y89000D02*
D03*
X56000Y85000D02*
D03*
X54330Y102971D02*
D03*
X56747Y98029D02*
D03*
X53052Y108453D02*
D03*
X36385Y99699D02*
D03*
X33419Y106722D02*
D03*
X50000Y72000D02*
D03*
X51510Y101254D02*
D03*
X57020Y103744D02*
D03*
X40470Y101145D02*
D03*
X37000Y104000D02*
D03*
X28095Y30958D02*
D03*
X62816Y55961D02*
D03*
M02*
