G04*
G04 #@! TF.GenerationSoftware,Altium Limited,Altium Designer,21.9.2 (33)*
G04*
G04 Layer_Physical_Order=2*
G04 Layer_Color=16711680*
%FSLAX43Y43*%
%MOMM*%
G71*
G04*
G04 #@! TF.SameCoordinates,8A64DE41-CE10-4B2C-A13A-6A112CDDCE5D*
G04*
G04*
G04 #@! TF.FilePolarity,Positive*
G04*
G01*
G75*
%ADD14C,0.254*%
%ADD42C,1.350*%
%ADD43R,1.350X1.350*%
%ADD46C,1.650*%
%ADD47R,1.650X1.650*%
%ADD48C,1.250*%
%ADD49R,1.250X1.250*%
%ADD50C,1.800*%
%ADD51R,1.650X1.650*%
%ADD52C,1.200*%
%ADD53C,1.508*%
%ADD54R,1.508X1.508*%
%ADD55C,1.270*%
G36*
X43000Y109399D02*
X42873Y109370D01*
X42730Y109513D01*
X42529Y109629D01*
X42444Y109652D01*
Y108810D01*
Y107968D01*
X42529Y107991D01*
X42730Y108107D01*
X42873Y108250D01*
X43000Y108221D01*
Y106771D01*
X42873Y106737D01*
X42850Y106777D01*
X42697Y106930D01*
X42508Y107039D01*
X42299Y107095D01*
X42081D01*
X41872Y107039D01*
X41683Y106930D01*
X41530Y106777D01*
X41421Y106588D01*
X41365Y106379D01*
Y106161D01*
X41417Y105968D01*
X39782Y104333D01*
X37772D01*
X37668Y104513D01*
X37513Y104668D01*
X37322Y104778D01*
X37110Y104835D01*
X36890D01*
X36678Y104778D01*
X36487Y104668D01*
X36332Y104513D01*
X36222Y104322D01*
X36165Y104110D01*
Y103890D01*
X36222Y103678D01*
X36332Y103487D01*
X36487Y103332D01*
X36678Y103222D01*
X36890Y103165D01*
X37110D01*
X37322Y103222D01*
X37513Y103332D01*
X37668Y103487D01*
X37772Y103667D01*
X39920D01*
X40048Y103692D01*
X40156Y103764D01*
X41888Y105497D01*
X42081Y105445D01*
X42299D01*
X42508Y105501D01*
X42697Y105610D01*
X42850Y105763D01*
X42873Y105803D01*
X43000Y105769D01*
Y104231D01*
X42873Y104197D01*
X42850Y104237D01*
X42697Y104390D01*
X42508Y104499D01*
X42299Y104555D01*
X42081D01*
X41872Y104499D01*
X41683Y104390D01*
X41530Y104237D01*
X41421Y104048D01*
X41365Y103839D01*
Y103621D01*
X41421Y103412D01*
X41530Y103223D01*
X41683Y103070D01*
X41872Y102961D01*
X42081Y102905D01*
X42299D01*
X42508Y102961D01*
X42697Y103070D01*
X42850Y103223D01*
X42873Y103263D01*
X43000Y103229D01*
Y101691D01*
X42873Y101657D01*
X42850Y101697D01*
X42697Y101850D01*
X42508Y101959D01*
X42299Y102015D01*
X42081D01*
X41872Y101959D01*
X41683Y101850D01*
X41530Y101697D01*
X41421Y101508D01*
X41395Y101411D01*
X41264D01*
X41248Y101467D01*
X41139Y101658D01*
X40983Y101813D01*
X40793Y101923D01*
X40580Y101980D01*
X40360D01*
X40148Y101923D01*
X39958Y101813D01*
X39802Y101658D01*
X39692Y101467D01*
X39635Y101255D01*
Y101035D01*
X39692Y100823D01*
X39802Y100632D01*
X39958Y100477D01*
X40137Y100373D01*
Y94990D01*
X40162Y94862D01*
X40235Y94754D01*
X41417Y93572D01*
X41365Y93379D01*
Y93161D01*
X41421Y92952D01*
X41530Y92763D01*
X41683Y92610D01*
X41872Y92501D01*
X42081Y92445D01*
X42299D01*
X42508Y92501D01*
X42697Y92610D01*
X42850Y92763D01*
X42873Y92803D01*
X43000Y92769D01*
Y91231D01*
X42873Y91197D01*
X42850Y91237D01*
X42697Y91390D01*
X42508Y91499D01*
X42299Y91555D01*
X42081D01*
X41872Y91499D01*
X41683Y91390D01*
X41530Y91237D01*
X41421Y91048D01*
X41365Y90839D01*
Y90621D01*
X41421Y90412D01*
X41530Y90223D01*
X41683Y90070D01*
X41872Y89961D01*
X42081Y89905D01*
X42299D01*
X42508Y89961D01*
X42697Y90070D01*
X42850Y90223D01*
X42873Y90263D01*
X43000Y90229D01*
Y88779D01*
X42873Y88750D01*
X42730Y88893D01*
X42529Y89009D01*
X42444Y89032D01*
Y88190D01*
X42190D01*
Y87936D01*
X41348D01*
X41371Y87851D01*
X41487Y87650D01*
X41650Y87487D01*
X41851Y87371D01*
X42074Y87311D01*
X42131D01*
X42184Y87184D01*
X41000Y86000D01*
Y67000D01*
X40000Y66000D01*
Y30000D01*
X45000Y25000D01*
Y24084D01*
X44890Y24021D01*
X44795Y24075D01*
X44604Y24127D01*
Y23000D01*
Y21873D01*
X44795Y21925D01*
X44890Y21979D01*
X45000Y21916D01*
Y10822D01*
X44890Y10758D01*
X44775Y10825D01*
X44495Y10900D01*
X44205D01*
X43925Y10825D01*
X43675Y10680D01*
X43470Y10475D01*
X43325Y10225D01*
X43250Y9945D01*
Y9655D01*
X43325Y9375D01*
X43470Y9125D01*
X43675Y8920D01*
X43925Y8775D01*
X44205Y8700D01*
X44495D01*
X44775Y8775D01*
X44890Y8842D01*
X45000Y8778D01*
Y1000D01*
X1000D01*
Y122000D01*
X43000D01*
Y109399D01*
D02*
G37*
G36*
X92000Y1000D02*
X53000D01*
Y30000D01*
X49000Y34000D01*
Y61113D01*
X49178Y61161D01*
X49396Y61287D01*
X49573Y61464D01*
X49699Y61682D01*
X49764Y61924D01*
Y62176D01*
X49699Y62418D01*
X49573Y62636D01*
X49396Y62813D01*
X49178Y62939D01*
X49000Y62987D01*
Y86279D01*
X49004Y86288D01*
X49142Y86621D01*
X49143Y86625D01*
X49145Y86629D01*
X49245Y86976D01*
X49339Y87300D01*
X49440Y87367D01*
X49482Y87368D01*
X49556Y87348D01*
Y88190D01*
Y89089D01*
X49510Y89124D01*
Y89852D01*
X49611Y89929D01*
X49701Y89905D01*
X49919D01*
X50128Y89961D01*
X50317Y90070D01*
X50470Y90223D01*
X50579Y90412D01*
X50635Y90621D01*
Y90839D01*
X50583Y91032D01*
X51746Y92194D01*
X51818Y92302D01*
X51843Y92430D01*
Y100483D01*
X52023Y100586D01*
X52178Y100742D01*
X52288Y100932D01*
X52345Y101144D01*
Y101364D01*
X52288Y101577D01*
X52178Y101767D01*
X52023Y101923D01*
X51832Y102033D01*
X51620Y102089D01*
X51400D01*
X51188Y102033D01*
X50997Y101923D01*
X50842Y101767D01*
X50762Y101629D01*
X50635Y101663D01*
Y102015D01*
X49510D01*
Y102852D01*
X49611Y102929D01*
X49701Y102905D01*
X49919D01*
X50128Y102961D01*
X50317Y103070D01*
X50470Y103223D01*
X50574Y103404D01*
X51616D01*
X51744Y103429D01*
X51852Y103501D01*
X52017Y103667D01*
X54813D01*
X54978Y103501D01*
X55086Y103429D01*
X55214Y103404D01*
X56252D01*
X56352Y103231D01*
X56507Y103076D01*
X56698Y102966D01*
X56910Y102909D01*
X57130D01*
X57342Y102966D01*
X57533Y103076D01*
X57688Y103231D01*
X57798Y103422D01*
X57855Y103634D01*
Y103854D01*
X57798Y104066D01*
X57688Y104257D01*
X57533Y104412D01*
X57342Y104522D01*
X57130Y104579D01*
X56910D01*
X56698Y104522D01*
X56507Y104412D01*
X56352Y104257D01*
X56244Y104070D01*
X55352D01*
X55187Y104236D01*
X55078Y104308D01*
X54951Y104333D01*
X51879D01*
X51751Y104308D01*
X51643Y104236D01*
X51478Y104070D01*
X50566D01*
X50470Y104237D01*
X50317Y104390D01*
X50128Y104499D01*
X49919Y104555D01*
X49701D01*
X49611Y104531D01*
X49510Y104608D01*
Y105392D01*
X49611Y105469D01*
X49701Y105445D01*
X49919D01*
X50128Y105501D01*
X50317Y105610D01*
X50470Y105763D01*
X50579Y105952D01*
X50635Y106161D01*
Y106379D01*
X50579Y106588D01*
X50470Y106777D01*
X50317Y106930D01*
X50128Y107039D01*
X49919Y107095D01*
X49701D01*
X49611Y107071D01*
X49510Y107148D01*
Y107876D01*
X49556Y107911D01*
Y108810D01*
Y109709D01*
X49510Y109744D01*
Y110510D01*
X52000Y113000D01*
X53000Y114000D01*
Y122000D01*
X92000D01*
Y1000D01*
D02*
G37*
G36*
X50842Y100742D02*
X50997Y100586D01*
X51177Y100483D01*
Y92568D01*
X50112Y91503D01*
X49919Y91555D01*
X49701D01*
X49611Y91531D01*
X49510Y91608D01*
Y92392D01*
X49611Y92469D01*
X49701Y92445D01*
X49919D01*
X50128Y92501D01*
X50317Y92610D01*
X50470Y92763D01*
X50579Y92952D01*
X50635Y93161D01*
Y93379D01*
X50579Y93588D01*
X50470Y93777D01*
X50317Y93930D01*
X50128Y94039D01*
X49919Y94095D01*
X49701D01*
X49611Y94071D01*
X49510Y94148D01*
Y94905D01*
X49629Y95004D01*
X49701Y94985D01*
X49919D01*
X50128Y95041D01*
X50317Y95150D01*
X50470Y95303D01*
X50579Y95492D01*
X50635Y95701D01*
Y95919D01*
X50579Y96128D01*
X50470Y96317D01*
X50317Y96470D01*
X50128Y96579D01*
X49919Y96635D01*
X49701D01*
X49629Y96616D01*
X49510Y96715D01*
Y100365D01*
X50635D01*
Y100846D01*
X50762Y100880D01*
X50842Y100742D01*
D02*
G37*
G36*
X41421Y100872D02*
X41530Y100683D01*
X41683Y100530D01*
X41872Y100421D01*
X42081Y100365D01*
X42299D01*
X42508Y100421D01*
X42697Y100530D01*
X42850Y100683D01*
X42873Y100723D01*
X43000Y100689D01*
Y96635D01*
X41365D01*
Y94985D01*
X43000D01*
Y93771D01*
X42873Y93737D01*
X42850Y93777D01*
X42697Y93930D01*
X42508Y94039D01*
X42299Y94095D01*
X42081D01*
X41888Y94043D01*
X40804Y95128D01*
Y100373D01*
X40983Y100477D01*
X41139Y100632D01*
X41248Y100823D01*
X41276Y100924D01*
X41407D01*
X41421Y100872D01*
D02*
G37*
%LPC*%
G36*
X41215Y119025D02*
X40945D01*
X40684Y118955D01*
X40451Y118820D01*
X40260Y118629D01*
X40125Y118396D01*
X40055Y118135D01*
Y117865D01*
X40125Y117604D01*
X40260Y117371D01*
X40451Y117180D01*
X40684Y117045D01*
X40945Y116975D01*
X41215D01*
X41476Y117045D01*
X41709Y117180D01*
X41900Y117371D01*
X42035Y117604D01*
X42105Y117865D01*
Y118135D01*
X42035Y118396D01*
X41900Y118629D01*
X41709Y118820D01*
X41476Y118955D01*
X41215Y119025D01*
D02*
G37*
G36*
X36135D02*
X35865D01*
X35604Y118955D01*
X35371Y118820D01*
X35180Y118629D01*
X35045Y118396D01*
X34975Y118135D01*
Y117865D01*
X35045Y117604D01*
X35180Y117371D01*
X35371Y117180D01*
X35604Y117045D01*
X35865Y116975D01*
X36135D01*
X36396Y117045D01*
X36629Y117180D01*
X36820Y117371D01*
X36955Y117604D01*
X37025Y117865D01*
Y118135D01*
X36955Y118396D01*
X36820Y118629D01*
X36629Y118820D01*
X36396Y118955D01*
X36135Y119025D01*
D02*
G37*
G36*
X31945D02*
X29895D01*
Y116975D01*
X31945D01*
Y119025D01*
D02*
G37*
G36*
X41936Y109652D02*
X41851Y109629D01*
X41650Y109513D01*
X41487Y109350D01*
X41371Y109149D01*
X41348Y109064D01*
X41936D01*
Y109652D01*
D02*
G37*
G36*
Y108556D02*
X41348D01*
X41371Y108471D01*
X41487Y108270D01*
X41650Y108107D01*
X41851Y107991D01*
X41936Y107968D01*
Y108556D01*
D02*
G37*
G36*
Y89032D02*
X41851Y89009D01*
X41650Y88893D01*
X41487Y88730D01*
X41371Y88529D01*
X41348Y88444D01*
X41936D01*
Y89032D01*
D02*
G37*
G36*
X22654Y65806D02*
Y65244D01*
X23216D01*
X23196Y65320D01*
X23083Y65514D01*
X22924Y65673D01*
X22730Y65786D01*
X22654Y65806D01*
D02*
G37*
G36*
X22146Y65806D02*
X22070Y65786D01*
X21876Y65673D01*
X21717Y65514D01*
X21604Y65320D01*
X21584Y65244D01*
X22146D01*
Y65806D01*
D02*
G37*
G36*
X23216Y64736D02*
X22654D01*
Y64174D01*
X22730Y64194D01*
X22924Y64307D01*
X23083Y64466D01*
X23196Y64660D01*
X23216Y64736D01*
D02*
G37*
G36*
X22146D02*
X21584D01*
X21604Y64660D01*
X21717Y64466D01*
X21876Y64307D01*
X22070Y64194D01*
X22146Y64174D01*
Y64736D01*
D02*
G37*
G36*
X37118Y63058D02*
X36364D01*
Y62304D01*
X37118D01*
Y63058D01*
D02*
G37*
G36*
X35856D02*
X35102D01*
Y62304D01*
X35856D01*
Y63058D01*
D02*
G37*
G36*
X38776Y63004D02*
X38524D01*
X38282Y62939D01*
X38064Y62813D01*
X37887Y62636D01*
X37761Y62418D01*
X37696Y62176D01*
Y61924D01*
X37761Y61682D01*
X37887Y61464D01*
X38064Y61287D01*
X38282Y61161D01*
X38524Y61096D01*
X38776D01*
X39018Y61161D01*
X39236Y61287D01*
X39413Y61464D01*
X39539Y61682D01*
X39604Y61924D01*
Y62176D01*
X39539Y62418D01*
X39413Y62636D01*
X39236Y62813D01*
X39018Y62939D01*
X38776Y63004D01*
D02*
G37*
G36*
X37118Y61796D02*
X36364D01*
Y61042D01*
X37118D01*
Y61796D01*
D02*
G37*
G36*
X35856D02*
X35102D01*
Y61042D01*
X35856D01*
Y61796D01*
D02*
G37*
G36*
X22505Y60710D02*
X22295D01*
X22091Y60655D01*
X21909Y60550D01*
X21760Y60401D01*
X21655Y60219D01*
X21600Y60015D01*
Y59805D01*
X21655Y59601D01*
X21760Y59419D01*
X21909Y59270D01*
X22091Y59164D01*
X22295Y59110D01*
X22505D01*
X22709Y59164D01*
X22891Y59270D01*
X23040Y59419D01*
X23146Y59601D01*
X23200Y59805D01*
Y60015D01*
X23146Y60219D01*
X23040Y60401D01*
X22891Y60550D01*
X22709Y60655D01*
X22505Y60710D01*
D02*
G37*
G36*
X7025Y55185D02*
X4975D01*
Y53135D01*
X7025D01*
Y55185D01*
D02*
G37*
G36*
X29744Y52641D02*
Y52002D01*
X30384D01*
X30356Y52106D01*
X30233Y52318D01*
X30060Y52491D01*
X29849Y52613D01*
X29744Y52641D01*
D02*
G37*
G36*
X22124D02*
Y52002D01*
X22764D01*
X22736Y52106D01*
X22613Y52318D01*
X22440Y52491D01*
X22229Y52613D01*
X22124Y52641D01*
D02*
G37*
G36*
X29236D02*
X29131Y52613D01*
X28920Y52491D01*
X28747Y52318D01*
X28624Y52106D01*
X28596Y52002D01*
X29236D01*
Y52641D01*
D02*
G37*
G36*
X21616D02*
X21511Y52613D01*
X21300Y52491D01*
X21127Y52318D01*
X21004Y52106D01*
X20976Y52002D01*
X21616D01*
Y52641D01*
D02*
G37*
G36*
X27065Y52623D02*
X26835D01*
X26612Y52563D01*
X26413Y52448D01*
X26250Y52285D01*
X26135Y52085D01*
X26075Y51863D01*
Y51632D01*
X26135Y51410D01*
X26250Y51210D01*
X26413Y51047D01*
X26612Y50932D01*
X26835Y50873D01*
X27065D01*
X27288Y50932D01*
X27487Y51047D01*
X27650Y51210D01*
X27765Y51410D01*
X27825Y51632D01*
Y51863D01*
X27765Y52085D01*
X27650Y52285D01*
X27487Y52448D01*
X27288Y52563D01*
X27065Y52623D01*
D02*
G37*
G36*
X24525D02*
X24295D01*
X24072Y52563D01*
X23873Y52448D01*
X23710Y52285D01*
X23595Y52085D01*
X23535Y51863D01*
Y51632D01*
X23595Y51410D01*
X23710Y51210D01*
X23873Y51047D01*
X24072Y50932D01*
X24295Y50873D01*
X24525D01*
X24748Y50932D01*
X24947Y51047D01*
X25110Y51210D01*
X25225Y51410D01*
X25285Y51632D01*
Y51863D01*
X25225Y52085D01*
X25110Y52285D01*
X24947Y52448D01*
X24748Y52563D01*
X24525Y52623D01*
D02*
G37*
G36*
X30384Y51494D02*
X29744D01*
Y50854D01*
X29849Y50882D01*
X30060Y51004D01*
X30233Y51177D01*
X30356Y51389D01*
X30384Y51494D01*
D02*
G37*
G36*
X22764D02*
X22124D01*
Y50854D01*
X22229Y50882D01*
X22440Y51004D01*
X22613Y51177D01*
X22736Y51389D01*
X22764Y51494D01*
D02*
G37*
G36*
X29236D02*
X28596D01*
X28624Y51389D01*
X28747Y51177D01*
X28920Y51004D01*
X29131Y50882D01*
X29236Y50854D01*
Y51494D01*
D02*
G37*
G36*
X21616D02*
X20976D01*
X21004Y51389D01*
X21127Y51177D01*
X21300Y51004D01*
X21511Y50882D01*
X21616Y50854D01*
Y51494D01*
D02*
G37*
G36*
X6254Y50129D02*
Y49334D01*
X7049D01*
X7005Y49496D01*
X6863Y49743D01*
X6663Y49943D01*
X6416Y50085D01*
X6254Y50129D01*
D02*
G37*
G36*
X5746D02*
X5584Y50085D01*
X5337Y49943D01*
X5137Y49743D01*
X4995Y49496D01*
X4951Y49334D01*
X5746D01*
Y50129D01*
D02*
G37*
G36*
X7049Y48826D02*
X6254D01*
Y48031D01*
X6416Y48075D01*
X6663Y48217D01*
X6863Y48417D01*
X7005Y48664D01*
X7049Y48826D01*
D02*
G37*
G36*
X5746D02*
X4951D01*
X4995Y48664D01*
X5137Y48417D01*
X5337Y48217D01*
X5584Y48075D01*
X5746Y48031D01*
Y48826D01*
D02*
G37*
G36*
X6135Y45025D02*
X5865D01*
X5604Y44955D01*
X5371Y44820D01*
X5180Y44629D01*
X5045Y44396D01*
X4975Y44135D01*
Y43865D01*
X5045Y43604D01*
X5180Y43371D01*
X5371Y43180D01*
X5604Y43045D01*
X5865Y42975D01*
X6135D01*
X6396Y43045D01*
X6629Y43180D01*
X6820Y43371D01*
X6955Y43604D01*
X7025Y43865D01*
Y44135D01*
X6955Y44396D01*
X6820Y44629D01*
X6629Y44820D01*
X6396Y44955D01*
X6135Y45025D01*
D02*
G37*
G36*
Y39945D02*
X5865D01*
X5604Y39875D01*
X5371Y39740D01*
X5180Y39549D01*
X5045Y39316D01*
X4975Y39055D01*
Y38785D01*
X5045Y38524D01*
X5180Y38291D01*
X5371Y38100D01*
X5604Y37965D01*
X5865Y37895D01*
X6135D01*
X6396Y37965D01*
X6629Y38100D01*
X6820Y38291D01*
X6955Y38524D01*
X7025Y38785D01*
Y39055D01*
X6955Y39316D01*
X6820Y39549D01*
X6629Y39740D01*
X6396Y39875D01*
X6135Y39945D01*
D02*
G37*
G36*
X29605Y37128D02*
X29375D01*
X29152Y37068D01*
X28953Y36953D01*
X28790Y36790D01*
X28675Y36590D01*
X28615Y36368D01*
Y36137D01*
X28675Y35915D01*
X28790Y35715D01*
X28953Y35552D01*
X29152Y35437D01*
X29375Y35378D01*
X29605D01*
X29828Y35437D01*
X30027Y35552D01*
X30190Y35715D01*
X30305Y35915D01*
X30365Y36137D01*
Y36368D01*
X30305Y36590D01*
X30190Y36790D01*
X30027Y36953D01*
X29828Y37068D01*
X29605Y37128D01*
D02*
G37*
G36*
X27065D02*
X26835D01*
X26612Y37068D01*
X26413Y36953D01*
X26250Y36790D01*
X26135Y36590D01*
X26075Y36368D01*
Y36137D01*
X26135Y35915D01*
X26250Y35715D01*
X26413Y35552D01*
X26612Y35437D01*
X26835Y35378D01*
X27065D01*
X27288Y35437D01*
X27487Y35552D01*
X27650Y35715D01*
X27765Y35915D01*
X27825Y36137D01*
Y36368D01*
X27765Y36590D01*
X27650Y36790D01*
X27487Y36953D01*
X27288Y37068D01*
X27065Y37128D01*
D02*
G37*
G36*
X24525D02*
X24295D01*
X24072Y37068D01*
X23873Y36953D01*
X23710Y36790D01*
X23595Y36590D01*
X23535Y36368D01*
Y36137D01*
X23595Y35915D01*
X23710Y35715D01*
X23873Y35552D01*
X24072Y35437D01*
X24295Y35378D01*
X24525D01*
X24748Y35437D01*
X24947Y35552D01*
X25110Y35715D01*
X25225Y35915D01*
X25285Y36137D01*
Y36368D01*
X25225Y36590D01*
X25110Y36790D01*
X24947Y36953D01*
X24748Y37068D01*
X24525Y37128D01*
D02*
G37*
G36*
X22745D02*
X20995D01*
Y35378D01*
X22745D01*
Y37128D01*
D02*
G37*
G36*
X8595Y30354D02*
Y29792D01*
X9157D01*
X9137Y29868D01*
X9024Y30062D01*
X8865Y30221D01*
X8670Y30334D01*
X8595Y30354D01*
D02*
G37*
G36*
X8087D02*
X8011Y30334D01*
X7816Y30221D01*
X7657Y30062D01*
X7545Y29868D01*
X7525Y29792D01*
X8087D01*
Y30354D01*
D02*
G37*
G36*
X13526Y30338D02*
X13315D01*
X13112Y30283D01*
X12930Y30178D01*
X12781Y30029D01*
X12675Y29847D01*
X12621Y29643D01*
Y29433D01*
X12675Y29229D01*
X12781Y29047D01*
X12930Y28898D01*
X13112Y28792D01*
X13315Y28738D01*
X13526D01*
X13730Y28792D01*
X13912Y28898D01*
X14061Y29047D01*
X14166Y29229D01*
X14221Y29433D01*
Y29643D01*
X14166Y29847D01*
X14061Y30029D01*
X13912Y30178D01*
X13730Y30283D01*
X13526Y30338D01*
D02*
G37*
G36*
X9157Y29284D02*
X8595D01*
Y28722D01*
X8670Y28742D01*
X8865Y28855D01*
X9024Y29014D01*
X9137Y29208D01*
X9157Y29284D01*
D02*
G37*
G36*
X8087D02*
X7525D01*
X7545Y29208D01*
X7657Y29014D01*
X7816Y28855D01*
X8011Y28742D01*
X8087Y28722D01*
Y29284D01*
D02*
G37*
G36*
X44096Y24127D02*
X43905Y24075D01*
X43641Y23923D01*
X43427Y23709D01*
X43275Y23445D01*
X43223Y23254D01*
X44096D01*
Y24127D01*
D02*
G37*
G36*
Y22746D02*
X43223D01*
X43275Y22555D01*
X43427Y22291D01*
X43641Y22077D01*
X43905Y21925D01*
X44096Y21873D01*
Y22746D01*
D02*
G37*
G36*
X28333Y21143D02*
Y20421D01*
X29054D01*
X29018Y20556D01*
X28885Y20786D01*
X28698Y20974D01*
X28468Y21106D01*
X28333Y21143D01*
D02*
G37*
G36*
X27825D02*
X27690Y21106D01*
X27460Y20974D01*
X27272Y20786D01*
X27140Y20556D01*
X27103Y20421D01*
X27825D01*
Y21143D01*
D02*
G37*
G36*
X13847Y21175D02*
X13093D01*
Y20421D01*
X13847D01*
Y21175D01*
D02*
G37*
G36*
X12585D02*
X11831D01*
Y20421D01*
X12585D01*
Y21175D01*
D02*
G37*
G36*
X30744Y21121D02*
X30493D01*
X30251Y21056D01*
X30033Y20931D01*
X29855Y20753D01*
X29730Y20535D01*
X29665Y20293D01*
Y20042D01*
X29730Y19799D01*
X29855Y19581D01*
X30033Y19404D01*
X30251Y19278D01*
X30493Y19213D01*
X30744D01*
X30987Y19278D01*
X31205Y19404D01*
X31382Y19581D01*
X31508Y19799D01*
X31573Y20042D01*
Y20293D01*
X31508Y20535D01*
X31382Y20753D01*
X31205Y20931D01*
X30987Y21056D01*
X30744Y21121D01*
D02*
G37*
G36*
X25664D02*
X25413D01*
X25171Y21056D01*
X24953Y20931D01*
X24775Y20753D01*
X24650Y20535D01*
X24585Y20293D01*
Y20042D01*
X24650Y19799D01*
X24775Y19581D01*
X24953Y19404D01*
X25171Y19278D01*
X25413Y19213D01*
X25664D01*
X25907Y19278D01*
X26125Y19404D01*
X26302Y19581D01*
X26428Y19799D01*
X26493Y20042D01*
Y20293D01*
X26428Y20535D01*
X26302Y20753D01*
X26125Y20931D01*
X25907Y21056D01*
X25664Y21121D01*
D02*
G37*
G36*
X23124D02*
X22873D01*
X22631Y21056D01*
X22413Y20931D01*
X22236Y20753D01*
X22110Y20535D01*
X22045Y20293D01*
Y20042D01*
X22110Y19799D01*
X22236Y19581D01*
X22413Y19404D01*
X22631Y19278D01*
X22873Y19213D01*
X23124D01*
X23367Y19278D01*
X23585Y19404D01*
X23762Y19581D01*
X23888Y19799D01*
X23953Y20042D01*
Y20293D01*
X23888Y20535D01*
X23762Y20753D01*
X23585Y20931D01*
X23367Y21056D01*
X23124Y21121D01*
D02*
G37*
G36*
X18044D02*
X17793D01*
X17551Y21056D01*
X17333Y20931D01*
X17156Y20753D01*
X17030Y20535D01*
X16965Y20293D01*
Y20042D01*
X17030Y19799D01*
X17156Y19581D01*
X17333Y19404D01*
X17551Y19278D01*
X17793Y19213D01*
X18044D01*
X18287Y19278D01*
X18505Y19404D01*
X18682Y19581D01*
X18808Y19799D01*
X18873Y20042D01*
Y20293D01*
X18808Y20535D01*
X18682Y20753D01*
X18505Y20931D01*
X18287Y21056D01*
X18044Y21121D01*
D02*
G37*
G36*
X15504D02*
X15253D01*
X15011Y21056D01*
X14793Y20931D01*
X14616Y20753D01*
X14490Y20535D01*
X14425Y20293D01*
Y20042D01*
X14490Y19799D01*
X14616Y19581D01*
X14793Y19404D01*
X15011Y19278D01*
X15253Y19213D01*
X15504D01*
X15747Y19278D01*
X15965Y19404D01*
X16142Y19581D01*
X16268Y19799D01*
X16333Y20042D01*
Y20293D01*
X16268Y20535D01*
X16142Y20753D01*
X15965Y20931D01*
X15747Y21056D01*
X15504Y21121D01*
D02*
G37*
G36*
X29054Y19913D02*
X28333D01*
Y19192D01*
X28468Y19228D01*
X28698Y19361D01*
X28885Y19548D01*
X29018Y19778D01*
X29054Y19913D01*
D02*
G37*
G36*
X27825D02*
X27103D01*
X27140Y19778D01*
X27272Y19548D01*
X27460Y19361D01*
X27690Y19228D01*
X27825Y19192D01*
Y19913D01*
D02*
G37*
G36*
X13847D02*
X13093D01*
Y19159D01*
X13847D01*
Y19913D01*
D02*
G37*
G36*
X12585D02*
X11831D01*
Y19159D01*
X12585D01*
Y19913D01*
D02*
G37*
G36*
X66215Y119025D02*
X65945D01*
X65684Y118955D01*
X65451Y118820D01*
X65260Y118629D01*
X65125Y118396D01*
X65055Y118135D01*
Y117865D01*
X65125Y117604D01*
X65260Y117371D01*
X65451Y117180D01*
X65684Y117045D01*
X65945Y116975D01*
X66215D01*
X66476Y117045D01*
X66709Y117180D01*
X66900Y117371D01*
X67035Y117604D01*
X67105Y117865D01*
Y118135D01*
X67035Y118396D01*
X66900Y118629D01*
X66709Y118820D01*
X66476Y118955D01*
X66215Y119025D01*
D02*
G37*
G36*
X61135D02*
X60865D01*
X60604Y118955D01*
X60371Y118820D01*
X60180Y118629D01*
X60045Y118396D01*
X59975Y118135D01*
Y117865D01*
X60045Y117604D01*
X60180Y117371D01*
X60371Y117180D01*
X60604Y117045D01*
X60865Y116975D01*
X61135D01*
X61396Y117045D01*
X61629Y117180D01*
X61820Y117371D01*
X61955Y117604D01*
X62025Y117865D01*
Y118135D01*
X61955Y118396D01*
X61820Y118629D01*
X61629Y118820D01*
X61396Y118955D01*
X61135Y119025D01*
D02*
G37*
G36*
X56945D02*
X54895D01*
Y116975D01*
X56945D01*
Y119025D01*
D02*
G37*
G36*
X50064Y109652D02*
Y109064D01*
X50652D01*
X50629Y109149D01*
X50513Y109350D01*
X50350Y109513D01*
X50149Y109629D01*
X50064Y109652D01*
D02*
G37*
G36*
X50652Y108556D02*
X50064D01*
Y107968D01*
X50149Y107991D01*
X50350Y108107D01*
X50513Y108270D01*
X50629Y108471D01*
X50652Y108556D01*
D02*
G37*
G36*
X50064Y89032D02*
Y88444D01*
X50652D01*
X50629Y88529D01*
X50513Y88730D01*
X50350Y88893D01*
X50149Y89009D01*
X50064Y89032D01*
D02*
G37*
G36*
X50652Y87936D02*
X50064D01*
Y87348D01*
X50149Y87371D01*
X50350Y87487D01*
X50513Y87650D01*
X50629Y87851D01*
X50652Y87936D01*
D02*
G37*
G36*
X51604Y63025D02*
Y62304D01*
X52325D01*
X52289Y62439D01*
X52157Y62669D01*
X51969Y62857D01*
X51739Y62989D01*
X51604Y63025D01*
D02*
G37*
G36*
X51096D02*
X50961Y62989D01*
X50731Y62857D01*
X50543Y62669D01*
X50411Y62439D01*
X50374Y62304D01*
X51096D01*
Y63025D01*
D02*
G37*
G36*
X54016Y63004D02*
X53764D01*
X53522Y62939D01*
X53304Y62813D01*
X53127Y62636D01*
X53001Y62418D01*
X52936Y62176D01*
Y61924D01*
X53001Y61682D01*
X53127Y61464D01*
X53304Y61287D01*
X53522Y61161D01*
X53764Y61096D01*
X54016D01*
X54258Y61161D01*
X54476Y61287D01*
X54653Y61464D01*
X54779Y61682D01*
X54844Y61924D01*
Y62176D01*
X54779Y62418D01*
X54653Y62636D01*
X54476Y62813D01*
X54258Y62939D01*
X54016Y63004D01*
D02*
G37*
G36*
X52325Y61796D02*
X51604D01*
Y61074D01*
X51739Y61111D01*
X51969Y61243D01*
X52157Y61431D01*
X52289Y61661D01*
X52325Y61796D01*
D02*
G37*
G36*
X51096D02*
X50374D01*
X50411Y61661D01*
X50543Y61431D01*
X50731Y61243D01*
X50961Y61111D01*
X51096Y61074D01*
Y61796D01*
D02*
G37*
G36*
X70245Y52623D02*
X70015D01*
X69792Y52563D01*
X69593Y52448D01*
X69430Y52285D01*
X69315Y52085D01*
X69255Y51863D01*
Y51632D01*
X69315Y51410D01*
X69430Y51210D01*
X69593Y51047D01*
X69792Y50932D01*
X70015Y50873D01*
X70245D01*
X70468Y50932D01*
X70667Y51047D01*
X70830Y51210D01*
X70945Y51410D01*
X71005Y51632D01*
Y51863D01*
X70945Y52085D01*
X70830Y52285D01*
X70667Y52448D01*
X70468Y52563D01*
X70245Y52623D01*
D02*
G37*
G36*
X67705D02*
X67475D01*
X67252Y52563D01*
X67053Y52448D01*
X66890Y52285D01*
X66775Y52085D01*
X66715Y51863D01*
Y51632D01*
X66775Y51410D01*
X66890Y51210D01*
X67053Y51047D01*
X67252Y50932D01*
X67475Y50873D01*
X67705D01*
X67928Y50932D01*
X68127Y51047D01*
X68290Y51210D01*
X68405Y51410D01*
X68465Y51632D01*
Y51863D01*
X68405Y52085D01*
X68290Y52285D01*
X68127Y52448D01*
X67928Y52563D01*
X67705Y52623D01*
D02*
G37*
G36*
X65165D02*
X64935D01*
X64712Y52563D01*
X64513Y52448D01*
X64350Y52285D01*
X64235Y52085D01*
X64175Y51863D01*
Y51632D01*
X64235Y51410D01*
X64350Y51210D01*
X64513Y51047D01*
X64712Y50932D01*
X64935Y50873D01*
X65165D01*
X65388Y50932D01*
X65587Y51047D01*
X65750Y51210D01*
X65865Y51410D01*
X65925Y51632D01*
Y51863D01*
X65865Y52085D01*
X65750Y52285D01*
X65587Y52448D01*
X65388Y52563D01*
X65165Y52623D01*
D02*
G37*
G36*
X62625D02*
X62395D01*
X62172Y52563D01*
X61973Y52448D01*
X61810Y52285D01*
X61695Y52085D01*
X61635Y51863D01*
Y51632D01*
X61695Y51410D01*
X61810Y51210D01*
X61973Y51047D01*
X62172Y50932D01*
X62395Y50873D01*
X62625D01*
X62848Y50932D01*
X63047Y51047D01*
X63210Y51210D01*
X63325Y51410D01*
X63385Y51632D01*
Y51863D01*
X63325Y52085D01*
X63210Y52285D01*
X63047Y52448D01*
X62848Y52563D01*
X62625Y52623D01*
D02*
G37*
G36*
X87786Y49346D02*
X87517D01*
X87256Y49276D01*
X87022Y49141D01*
X86831Y48950D01*
X86696Y48716D01*
X86627Y48455D01*
Y48186D01*
X86696Y47925D01*
X86831Y47691D01*
X87022Y47500D01*
X87256Y47365D01*
X87517Y47296D01*
X87786D01*
X88047Y47365D01*
X88281Y47500D01*
X88472Y47691D01*
X88607Y47925D01*
X88677Y48186D01*
Y48455D01*
X88607Y48716D01*
X88472Y48950D01*
X88281Y49141D01*
X88047Y49276D01*
X87786Y49346D01*
D02*
G37*
G36*
Y44265D02*
X87517D01*
X87256Y44196D01*
X87022Y44061D01*
X86831Y43870D01*
X86696Y43636D01*
X86627Y43375D01*
Y43106D01*
X86696Y42845D01*
X86831Y42611D01*
X87022Y42420D01*
X87256Y42285D01*
X87517Y42215D01*
X87786D01*
X88047Y42285D01*
X88281Y42420D01*
X88472Y42611D01*
X88607Y42845D01*
X88677Y43106D01*
Y43375D01*
X88607Y43636D01*
X88472Y43870D01*
X88281Y44061D01*
X88047Y44196D01*
X87786Y44265D01*
D02*
G37*
G36*
X88677Y39186D02*
X86627D01*
Y37136D01*
X88677D01*
Y39186D01*
D02*
G37*
G36*
X70384Y37146D02*
Y36507D01*
X71024D01*
X70996Y36611D01*
X70873Y36823D01*
X70700Y36996D01*
X70489Y37118D01*
X70384Y37146D01*
D02*
G37*
G36*
X62764D02*
Y36507D01*
X63404D01*
X63376Y36611D01*
X63253Y36823D01*
X63080Y36996D01*
X62869Y37118D01*
X62764Y37146D01*
D02*
G37*
G36*
X69876D02*
X69771Y37118D01*
X69560Y36996D01*
X69387Y36823D01*
X69264Y36611D01*
X69236Y36507D01*
X69876D01*
Y37146D01*
D02*
G37*
G36*
X62256D02*
X62151Y37118D01*
X61940Y36996D01*
X61767Y36823D01*
X61644Y36611D01*
X61616Y36507D01*
X62256D01*
Y37146D01*
D02*
G37*
G36*
X67705Y37128D02*
X67475D01*
X67252Y37068D01*
X67053Y36953D01*
X66890Y36790D01*
X66775Y36590D01*
X66715Y36368D01*
Y36137D01*
X66775Y35915D01*
X66890Y35715D01*
X67053Y35552D01*
X67252Y35437D01*
X67475Y35378D01*
X67705D01*
X67928Y35437D01*
X68127Y35552D01*
X68290Y35715D01*
X68405Y35915D01*
X68465Y36137D01*
Y36368D01*
X68405Y36590D01*
X68290Y36790D01*
X68127Y36953D01*
X67928Y37068D01*
X67705Y37128D01*
D02*
G37*
G36*
X65165D02*
X64935D01*
X64712Y37068D01*
X64513Y36953D01*
X64350Y36790D01*
X64235Y36590D01*
X64175Y36368D01*
Y36137D01*
X64235Y35915D01*
X64350Y35715D01*
X64513Y35552D01*
X64712Y35437D01*
X64935Y35378D01*
X65165D01*
X65388Y35437D01*
X65587Y35552D01*
X65750Y35715D01*
X65865Y35915D01*
X65925Y36137D01*
Y36368D01*
X65865Y36590D01*
X65750Y36790D01*
X65587Y36953D01*
X65388Y37068D01*
X65165Y37128D01*
D02*
G37*
G36*
X71024Y35999D02*
X70384D01*
Y35359D01*
X70489Y35387D01*
X70700Y35509D01*
X70873Y35682D01*
X70996Y35894D01*
X71024Y35999D01*
D02*
G37*
G36*
X63404D02*
X62764D01*
Y35359D01*
X62869Y35387D01*
X63080Y35509D01*
X63253Y35682D01*
X63376Y35894D01*
X63404Y35999D01*
D02*
G37*
G36*
X69876D02*
X69236D01*
X69264Y35894D01*
X69387Y35682D01*
X69560Y35509D01*
X69771Y35387D01*
X69876Y35359D01*
Y35999D01*
D02*
G37*
G36*
X62256D02*
X61616D01*
X61644Y35894D01*
X61767Y35682D01*
X61940Y35509D01*
X62151Y35387D01*
X62256Y35359D01*
Y35999D01*
D02*
G37*
G36*
X88677Y30856D02*
X86627D01*
Y28806D01*
X88677D01*
Y30856D01*
D02*
G37*
G36*
X87787Y25776D02*
X87517D01*
X87256Y25706D01*
X87022Y25571D01*
X86831Y25380D01*
X86696Y25146D01*
X86627Y24886D01*
Y24616D01*
X86696Y24355D01*
X86831Y24121D01*
X87022Y23930D01*
X87256Y23796D01*
X87517Y23726D01*
X87787D01*
X88047Y23796D01*
X88281Y23930D01*
X88472Y24121D01*
X88607Y24355D01*
X88677Y24616D01*
Y24886D01*
X88607Y25146D01*
X88472Y25380D01*
X88281Y25571D01*
X88047Y25706D01*
X87787Y25776D01*
D02*
G37*
G36*
X61354Y24127D02*
Y23254D01*
X62227D01*
X62175Y23445D01*
X62023Y23709D01*
X61809Y23923D01*
X61545Y24075D01*
X61354Y24127D01*
D02*
G37*
G36*
X60846D02*
X60655Y24075D01*
X60391Y23923D01*
X60177Y23709D01*
X60025Y23445D01*
X59973Y23254D01*
X60846D01*
Y24127D01*
D02*
G37*
G36*
X57145Y24100D02*
X56855D01*
X56575Y24025D01*
X56325Y23880D01*
X56120Y23675D01*
X55975Y23425D01*
X55900Y23145D01*
Y22855D01*
X55975Y22575D01*
X56120Y22325D01*
X56325Y22120D01*
X56575Y21975D01*
X56855Y21900D01*
X57145D01*
X57425Y21975D01*
X57675Y22120D01*
X57880Y22325D01*
X58025Y22575D01*
X58100Y22855D01*
Y23145D01*
X58025Y23425D01*
X57880Y23675D01*
X57675Y23880D01*
X57425Y24025D01*
X57145Y24100D01*
D02*
G37*
G36*
X62227Y22746D02*
X61354D01*
Y21873D01*
X61545Y21925D01*
X61809Y22077D01*
X62023Y22291D01*
X62175Y22555D01*
X62227Y22746D01*
D02*
G37*
G36*
X60846D02*
X59973D01*
X60025Y22555D01*
X60177Y22291D01*
X60391Y22077D01*
X60655Y21925D01*
X60846Y21873D01*
Y22746D01*
D02*
G37*
G36*
X87787Y20696D02*
X87517D01*
X87256Y20626D01*
X87022Y20491D01*
X86831Y20300D01*
X86696Y20066D01*
X86627Y19806D01*
Y19536D01*
X86696Y19275D01*
X86831Y19041D01*
X87022Y18850D01*
X87256Y18716D01*
X87517Y18646D01*
X87787D01*
X88047Y18716D01*
X88281Y18850D01*
X88472Y19041D01*
X88607Y19275D01*
X88677Y19536D01*
Y19806D01*
X88607Y20066D01*
X88472Y20300D01*
X88281Y20491D01*
X88047Y20626D01*
X87787Y20696D01*
D02*
G37*
G36*
X61245Y10900D02*
X60955D01*
X60675Y10825D01*
X60425Y10680D01*
X60220Y10475D01*
X60075Y10225D01*
X60000Y9945D01*
Y9655D01*
X60075Y9375D01*
X60220Y9125D01*
X60425Y8920D01*
X60675Y8775D01*
X60955Y8700D01*
X61245D01*
X61525Y8775D01*
X61775Y8920D01*
X61980Y9125D01*
X62125Y9375D01*
X62200Y9655D01*
Y9945D01*
X62125Y10225D01*
X61980Y10475D01*
X61775Y10680D01*
X61525Y10825D01*
X61245Y10900D01*
D02*
G37*
G36*
X57145D02*
X56855D01*
X56575Y10825D01*
X56325Y10680D01*
X56120Y10475D01*
X55975Y10225D01*
X55900Y9945D01*
Y9655D01*
X55975Y9375D01*
X56120Y9125D01*
X56325Y8920D01*
X56575Y8775D01*
X56855Y8700D01*
X57145D01*
X57425Y8775D01*
X57675Y8920D01*
X57880Y9125D01*
X58025Y9375D01*
X58100Y9655D01*
Y9945D01*
X58025Y10225D01*
X57880Y10475D01*
X57675Y10680D01*
X57425Y10825D01*
X57145Y10900D01*
D02*
G37*
G36*
X76254Y7049D02*
Y6254D01*
X77049D01*
X77006Y6416D01*
X76863Y6663D01*
X76663Y6863D01*
X76417Y7005D01*
X76254Y7049D01*
D02*
G37*
G36*
X75746D02*
X75584Y7005D01*
X75338Y6863D01*
X75137Y6663D01*
X74995Y6416D01*
X74951Y6254D01*
X75746D01*
Y7049D01*
D02*
G37*
G36*
X82105Y7025D02*
X80055D01*
Y4975D01*
X82105D01*
Y7025D01*
D02*
G37*
G36*
X71055D02*
X70785D01*
X70524Y6955D01*
X70291Y6820D01*
X70100Y6629D01*
X69965Y6396D01*
X69895Y6135D01*
Y5865D01*
X69965Y5604D01*
X70100Y5371D01*
X70291Y5180D01*
X70524Y5045D01*
X70785Y4975D01*
X71055D01*
X71316Y5045D01*
X71549Y5180D01*
X71740Y5371D01*
X71875Y5604D01*
X71945Y5865D01*
Y6135D01*
X71875Y6396D01*
X71740Y6629D01*
X71549Y6820D01*
X71316Y6955D01*
X71055Y7025D01*
D02*
G37*
G36*
X77049Y5746D02*
X76254D01*
Y4951D01*
X76417Y4995D01*
X76663Y5137D01*
X76863Y5337D01*
X77006Y5584D01*
X77049Y5746D01*
D02*
G37*
G36*
X75746D02*
X74951D01*
X74995Y5584D01*
X75137Y5337D01*
X75338Y5137D01*
X75584Y4995D01*
X75746Y4951D01*
Y5746D01*
D02*
G37*
%LPD*%
D14*
X51879Y104000D02*
X54951D01*
X51616Y103737D02*
X51879Y104000D01*
X54951D02*
X55214Y103737D01*
X57013D01*
X49817D02*
X51616D01*
X51510Y92430D02*
Y101254D01*
X49810Y90730D02*
X51510Y92430D01*
X57013Y103737D02*
X57020Y103744D01*
X49810Y103730D02*
X49817Y103737D01*
X40470Y94990D02*
Y101145D01*
Y94990D02*
X42190Y93270D01*
X39920Y104000D02*
X42190Y106270D01*
X37000Y104000D02*
X39920D01*
D42*
X21870Y51748D02*
D03*
X24410D02*
D03*
X26950D02*
D03*
X29490D02*
D03*
X62510D02*
D03*
X65050D02*
D03*
X67590D02*
D03*
X70130D02*
D03*
Y36253D02*
D03*
X67590D02*
D03*
X65050D02*
D03*
X62510D02*
D03*
X29490D02*
D03*
X26950D02*
D03*
X24410D02*
D03*
D43*
X21870D02*
D03*
D46*
X66080Y118000D02*
D03*
X61000D02*
D03*
X41080Y118000D02*
D03*
X36000D02*
D03*
X87652Y24751D02*
D03*
Y19671D02*
D03*
X87652Y48320D02*
D03*
Y43241D02*
D03*
X6000Y49080D02*
D03*
Y44000D02*
D03*
Y38920D02*
D03*
X76000Y6000D02*
D03*
X70920D02*
D03*
D47*
X55920Y118000D02*
D03*
X30920Y118000D02*
D03*
X81080Y6000D02*
D03*
D48*
X42190Y101190D02*
D03*
Y103730D02*
D03*
Y106270D02*
D03*
Y108810D02*
D03*
X49810D02*
D03*
Y106270D02*
D03*
Y103730D02*
D03*
Y95810D02*
D03*
Y93270D02*
D03*
Y90730D02*
D03*
Y88190D02*
D03*
X42190D02*
D03*
Y90730D02*
D03*
Y93270D02*
D03*
D49*
X49810Y101190D02*
D03*
X42190Y95810D02*
D03*
D50*
X50700Y23000D02*
D03*
X61100D02*
D03*
X57000D02*
D03*
X44350Y9800D02*
D03*
Y23000D02*
D03*
X50700Y9800D02*
D03*
X61100D02*
D03*
X57000D02*
D03*
D51*
X87652Y29831D02*
D03*
X87652Y38160D02*
D03*
X6000Y54160D02*
D03*
D52*
X22400Y59910D02*
D03*
Y64990D02*
D03*
X13421Y29538D02*
D03*
X8341D02*
D03*
D53*
X30619Y20167D02*
D03*
X28079D02*
D03*
X25539D02*
D03*
X22999D02*
D03*
X17919D02*
D03*
X15379D02*
D03*
X38650Y62050D02*
D03*
X41190D02*
D03*
X46270D02*
D03*
X48810D02*
D03*
X51350D02*
D03*
X53890D02*
D03*
D54*
X12839Y20167D02*
D03*
X36110Y62050D02*
D03*
D55*
X28000Y89000D02*
D03*
X56000Y85000D02*
D03*
X54330Y102971D02*
D03*
X56747Y98029D02*
D03*
X53052Y108453D02*
D03*
X36385Y99699D02*
D03*
X33419Y106722D02*
D03*
X50000Y72000D02*
D03*
X51510Y101254D02*
D03*
X57020Y103744D02*
D03*
X40470Y101145D02*
D03*
X37000Y104000D02*
D03*
X28095Y30958D02*
D03*
X62816Y55961D02*
D03*
M02*
